<?xml version="1.0" encoding="UTF-8"?>
<svg xmlns="http://www.w3.org/2000/svg" viewBox="0 0 1147.5 765.74">
  <defs>
    <style>
      .cls-1 {
        fill: #fefefe;
      }

      .cls-1, .cls-2, .cls-3, .cls-4, .cls-5 {
        stroke-width: 0px;
      }

      .cls-2 {
        fill: #878686;
      }

      .trash-can {
        fill: #6eb128;
        stroke: #1f140f;
        stroke-miterlimit: 10;
      }

      .trash-can-full {
        fill: #D01D00;
        stroke: #1f140f;
        stroke-miterlimit: 10;
      }

      .cls-3 {
        fill: #fff;
      }

      .cls-4 {
        fill: #fbfcfb;
      }

      .cls-5 {
        fill: #565757;
      }
    </style>
  </defs>
  <g id="Camada_1" data-name="Camada 1">
    <path class="cls-2" d="m6.64,431.58c2.59.17,5.18.34,8.04.53.42-3.35.71-6.7,1.32-9.98.18-.95,1.29-1.73,1.98-2.58.35,1.05,1.07,2.12,1,3.14-.23,3.31-.74,6.6-1.15,10,11.29,1.41,22.17,2.77,33.06,4.12,8.42,1.05,16.99,1.46,25.22,3.36,4.63,1.07,9.07,4.09,12.91,7.11,5.82,4.56,11.32,9.43,18.8,11.08,5.97,1.32,11.93,2.75,17.95,3.81,14.5,2.55,28.96,5.45,43.57,7.13,8.48.97,17.2-.04,25.8-.37,7.13-.28,14.22-.42,21.15,1.57,1.77.51,3.58,1.06,5.2,1.93,2.75,1.47,5.56,2.94,7.98,4.87,8.91,7.09,19.23,9.36,30.31,9.73,17.61.6,33.11,7.71,47.96,16.41,13.73,8.05,25.78,18.4,38,28.51,4.51,3.74,9.72,5.83,15.92,4.72,5.57-.99,8.64-5.16,12.15-8.78.56-.57.25-2.15.08-3.22-.67-4.31-1.53-8.6-2.11-12.92-.11-.82.76-1.78,1.17-2.67.59.7,1.55,1.33,1.71,2.12.88,4.25,1.56,8.55,2.37,13.15,8.33-6.26,13.63-15.45,23.25-19.82-1.98-7.35-4.03-14.76-5.98-22.2-1.31-5.02.13-7.54,5.2-8.81,16.1-4.02,32.23-7.96,48.35-11.9,8.37-2.04,16.75-4.01,25.12-6.04,2.82-.68,5.51-1.12,6.76,2.93,5.87-4.92,11.31-9.47,16.74-14.02.47-.4.88-1.23,1.34-1.25,7.43-.33,10.35-6.81,14.89-10.97,9.1-8.34,17.95-16.94,26.91-25.42.36-.34.82-.58,1.66-1.16-4.81-4.25-9.02-8.48-13.76-12.03-8.37-6.28-16.98-12.24-25.62-18.14-12.16-8.32-24.43-16.46-36.66-24.68-1.34-.9-2.68-1.81-4.45-3.01-1.53,2.21-3.15,4.22-4.41,6.44-2.26,3.97-5.84,6.1-9.96,7.41-6.54,2.09-13.14,3.99-19.72,5.94-4.12,1.23-7.8-.68-8.98-4.84-3.5-12.31-4.22-13.22,8.54-16.9,1.92-.55,3.75-1.46,5.69-1.86,4.97-1.03,8.64-3.66,11.08-8.68-3.71-2.7-7.6-5.51-10.51-7.62-8.39,2.54-15.93,4.87-23.52,7.05-.71.2-1.69-.51-2.54-.79.57-.69,1-1.74,1.73-2.01,2.31-.86,4.73-1.43,7.96-2.35-1.58-1.89-2.58-3.58-4.01-4.71-3.04-2.39-6.37-4.4-9.42-6.78-.77-.6-.91-2-1.35-3.03,1.19.03,2.76-.43,3.52.16,4.85,3.78,11.16,5.88,14.05,11.98.24.5,1.25,1.09,1.72.96,2.55-.7,5.05-1.61,7.57-2.45.08-.46.16-.92.24-1.39-38.27-26.85-76.54-53.7-115.81-81.26-.55,6.46-.93,11.72-1.47,16.96-1.97,19.22-3.86,38.45-6.15,57.63-.37,3.13-2.03,6.52-4.09,8.95-4.57,5.4-9.75,10.28-14.73,15.33-.68.69-1.6,1.47-2.49,1.58-1.44.18-2.94-.16-4.41-.28,1.01-.82,1.99-1.67,3.04-2.44,1.71-1.25,3.71-2.21,5.13-3.71,4.37-4.61,8.64-9.33,12.69-14.22,1.11-1.35,1.68-3.41,1.87-5.22,2.34-22.44,4.57-44.9,6.82-67.35.09-.93.01-1.88.01-3.5-7.14,4.28-13.73,8.25-20.34,12.18-14.81,8.8-29.56,17.71-44.49,26.32-11.88,6.86-23.74,13.85-36.07,19.84-10.47,5.08-21.16,10.62-33.43,9.42-7.82-.76-15.55-2.63-23.37-3.17-9.18-.63-16.73-4.47-23.82-9.82-7.17-5.42-14.81-10.3-21.49-16.25-10.33-9.21-22.05-14.21-35.81-14.87-3.97-.19-7.94-.95-11.86-1.68-4.2-.79-8.07-2.22-11.2-5.49-3.79-3.96-7.67-7.96-12.07-11.19-3.11-2.28-7.15-3.28-10.74-4.93-2.13-.98-4.39-1.86-6.23-3.26-1.14-.86-2.05-2.54-2.29-3.98-1.43-8.49,5.45-15.38,14.18-14.83,11.07.71,22.16,1.05,33.58,1.56.84-4.94,1.63-9.57,2.51-14.78-5.72-.41-11.26-.81-16.8-1.21-.37-.03-.81.09-1.11-.07-1.06-.54-2.08-1.18-3.12-1.78,1.04-.42,2.09-1.21,3.13-1.18,4.62.12,9.22.48,13.84.72,1.22.06,2.45,0,4.06,0,.22-4.73.43-9.27.66-14.3-3.59-.31-6.89-.62-10.2-.89-4.51-.36-5.66-1.54-5.65-6.01,0-8.97-.59-18.01.25-26.9.79-8.38,4.13-11.85,12.49-9.5,1.2.34,2.41.64,3.63.91,1.09.24,2.2.39,3.81.68,1.33-4.83,2.65-9.58,3.95-14.33,1.28-4.68,2.53-9.36,3.91-14.48-6.71-2-13.23-3.96-19.76-5.88-11.73-3.45-23.51-6.74-35.16-10.44-2.49-.79-4.51-3.04-6.75-4.62,1.21.27,2.44.46,3.61.81,20.58,6.24,41.14,12.49,61.72,18.75-4.47,16.87-10.56,33.41-10.98,51.39,6.66.3,12.99.65,19.33.85,19.21.6,38.42,1.05,57.62,1.8,2.07.08,4.63,1.23,6.02,2.75,3.16,3.46,5.73,7.45,8.62,11.32,13.23-8.13,26.52-16.25,39.72-24.5.79-.49,1.24-2.01,1.31-3.08.42-6.83,6.63-10.56,12.05-6.58,3.06,2.24,6.07,2.41,9.34,2.65,13.56.98,27.12,1.94,40.69,2.86,5.65.39,11.31.67,17.31,1.02v-6.91c1.26.06,2.52.13,3.78.19v7.04h3.38c.35-2.29.66-4.36.98-6.43,1.09.08,2.17.16,3.26.24v6.86c4.45.36,8.78.77,13.11,1.04,21.54,1.35,43.07,2.73,64.62,3.98,33.87,1.97,67.76,3.68,101.61,5.83,21.41,1.36,42.78,3.25,64.16,5,8,.66,15.87.91,23.15-3.51-.38-.87-.73-1.65-1.08-2.44,1.67-.14,3.34-.27,5.01-.41.61,4.45-1.21,6.95-5.72,7.9-3.57.75-7.02,2.1-11.5,3.49,8.29,11.12,16.43,22.04,24.77,33.23,10.32-8.06,20.3-15.86,30.49-23.82-4.4-6.66-8.58-12.98-12.75-19.3,1.59.02,3.18.04,4.77.06,1.01,1.69,2.01,3.37,3.36,5.63.74-2.22,1.2-3.61,1.66-4.99l4.03.17c-.61,3.43-2.9,7.91-1.53,10.1,5.37,8.57,11.89,16.42,18.1,24.69,3.04-2.37,5.32-4.28,7.77-5.97.85-.59,2.11-.6,3.18-.87-.49,1.08-.71,2.44-1.51,3.19-2.16,2.02-4.57,3.77-7.09,5.81,4.08,5.33,7.98,10.43,12.05,15.76,6.07-5.41,11.82-10.53,17.94-15.98-4.61-4.91-9.16-9.5-13.42-14.35-6.06-6.88-11.92-13.95-17.86-20.93,1.88.03,3.77.06,5.65.09.42,1.31.58,2.8,1.33,3.88,1.2,1.71,2.79,3.16,4.25,4.68,5.9,6.18,11.81,12.34,17.99,18.8,7.03-8.08,15.17-14.78,19.59-24.52,1.29.26,2.58.51,3.87.77-1.29,2.24-2.39,4.63-3.93,6.7-1.56,2.1-1.43,3.42.49,5.32,6.19,6.13,12,12.66,18.23,18.76,6.48,6.34,13.28,12.36,20.21,18.76,3.55-2.02,6.27-5.52,5.42-11.2-.44-2.93-.44-5.96-.38-8.93.09-4.57,1.12-5.45,5.56-6.33,9.24-1.84,18.46-3.85,27.89-5.84v-9.1c1.52.17,3.05.34,4.57.52-.38,2.44-.77,4.89-1.19,7.59,11.36,2.15,22.09,4.23,32.86,6.13.77.14,2.18-.86,2.58-1.67.63-1.28.64-2.86.92-4.31l5.33,1.32c-1.19,1.9-2.38,3.8-3.92,6.24,5.13,1.16,9.26,1.99,13.32,3.1,1.08.3,1.93,1.46,2.88,2.22-1.19.23-2.44.82-3.55.63-4.24-.74-8.43-1.74-12.84-2.68-1.66,6.36-3.19,12.2-4.8,18.34,2,.31,3.45.64,4.91.74,4.86.32,9.73.45,14.57.9,1.23.11,2.37,1.14,3.55,1.74-1.16.41-2.3,1.11-3.48,1.19-2.72.18-5.46.06-7.24.06-4.06,9.68-7.65,19.07-11.91,28.14-4.08,8.69-10.84,15.03-20.19,17.69-10.78,3.06-21.59,6.3-33.02,5.93-1.37-.04-2.75.35-4.72.62,12.95,18.61,25.48,36.61,38.17,54.84,3.67-2.83,7.11-5.49,10.57-8.13,3.47-2.65,6.9-5.37,10.47-7.89,5.04-3.56,7.26-3.01,10.69,2.15,9.96,14.95,19.94,29.89,29.94,44.81,1.23,1.83,2.6,3.57,4.02,5.49,16.82-11.23,33.34-22.26,49.7-33.18-1.55-2.18-2.56-3.62-3.94-5.57,6.88.06,8.94-1.59,10.11-7.31.67-3.3,1.27-6.61,1.88-9.92,1.13-6.08,2.24-12.16,3.4-18.43-5.22-1.17-9.98-2.14-14.67-3.35-1.11-.29-2.02-1.37-3.02-2.08,1.19-.29,2.37-.66,3.57-.82.58-.08,1.2.27,1.81.4,4.23.89,8.46,1.77,13.04,2.73,3.14-16.15,6.2-31.85,9.3-47.78-8.16-2.02-15.72-3.63-23.11-5.83-3.89-1.16-7.51-3.25-11.14-5.14-.65-.34-.73-1.77-1.07-2.69.99-.14,1.98-.37,2.97-.37.43,0,.87.44,1.3.7,9.66,5.79,20.93,6.07,31.59,9.7.72-3.8,1.3-7.09,1.97-10.37.4-1.96-.5-2.64-2.29-3-3.18-.65-6.34-1.41-9.45-2.3-6.7-1.91-13.38-3.87-20.02-5.97-.81-.26-1.32-1.5-1.96-2.29,1.08-.15,2.24-.65,3.23-.41,14.03,3.36,28.03,6.85,42.07,10.2.97.23,2.15-.38,3.23-.61.25.16.49.33.74.49.74.09,1.48.19,2.23.28,11.52,3.24,23.03,6.47,34.55,9.71.39,4.96.87,9.91,1.11,14.87.05,1.13-.72,2.31-1.12,3.46-.66-1.04-1.74-2.01-1.9-3.12-.55-3.7-.93-7.43-1.07-11.17-.1-2.62-.92-4.02-3.72-4.53-6.26-1.14-12.42-2.83-18.68-3.92-7.69-1.34-15.45-2.31-23.42-3.47-1.82,9.78-3.6,18.95-5.22,28.14-1.1,6.22-1.96,12.48-2.93,18.73-.13.06-.26.13-.4.19.07.01.18.05.21.02.07-.07.1-.18.15-.27,3.41-1.5,6.85-2.92,10.22-4.5,7.43-3.48,14.83-7.03,22.57-10.72-1.96-4.61-3.91-8.89-5.57-13.29-.38-1,.26-2.38.43-3.58.99.73,2.42,1.24,2.88,2.22,1.99,4.14,3.69,8.42,5.21,11.99,13.88,2.4,27.02,4.99,39.85,10.78,1.7-1.55,4.52-.71,7.17.29,9.19,3.46,18.31,7.12,27.51,10.57,2.43.91,3.64,2.41,2.83,4.78-.55,1.6-1.69,3.16-2.94,4.34-3.47,3.26-6.78,6.53-7.25,12.12,2.19-.16,4.15-.28,6.11-.45,10.8-.94,21.59-2.02,32.4-2.8,7.35-.53,14.66-.96,21.33-4.54-.3,1.31-.3,2.8-.96,3.88-1.73,2.83-2.5,5.91-2.99,9.11-3.67-3.25-8.01-2.86-12.41-2.35-19.34,2.24-38.7,4.39-58.03,6.7-6.51.78-12.98,1.94-19.95,3,3.09,7.86,5.88,15.18,8.85,22.43,1.03,2.5,2.43,4.87,3.81,7.21,1.21,2.06,2.82,2.18,5.06,1.2,9.04-3.94,18.15-7.69,27.28-11.43,1.24-.51,2.68-.51,4.03-.75.19.63.39,1.26.58,1.89-10.81,4.61-21.63,9.22-32.55,13.88,8.45,10.86,16.64,21.23,24.61,31.76,2.45,3.24,3.77,6.84,1.4,11.05-7.34,13.03-14.47,26.16-21.69,39.26-.68,1.23-1.37,2.44-2.37,4.23h6.41c-1.97,3.46-3.95,6.92-5.92,10.38-.64-1.82-1.27-3.63-2.24-6.4-3.16,6.16-5.86,11.44-8.56,16.72-2.74,5.37-5.71,6.05-10.27,2.03-9.64-8.51-19.22-17.08-28.69-25.79-1.82-1.67-3.19-2.11-5.54-1.17-8.69,3.48-17.47,6.73-26.22,10.05-4.35,1.65-6.95.46-8.45-3.83-.93-2.67-1.85-5.36-2.74-7.96-11.32,2.99-21.11,7.58-26.56,18.54-3.31,6.65-8.69,11.48-14.96,15.36-1.59.98-3.05,2.17-4.58,3.26-6.88,4.91-13.76,9.82-20.92,14.93,16.26,23.14,32.29,45.96,48.2,68.61,4.31-.96,6.11-2.9,4.67-6.99-.26-.75.53-1.86.84-2.81.7.72,1.75,1.32,2.04,2.18,2.02,5.95,1.84,6.31-3.47,9.43-.64.38-1.25.8-2.01,1.28,7.84,11.5,15.62,22.91,23.15,33.94,2.12-.15,3.67-.27,5.22-.38-.95,1.72-1.87,3.45-2.85,5.15-.41.71-1.05,1.3-1.43,2.03-1.22,2.32-2.38,4.67-3.56,7.01-1.98-2.59-2.36-5.25-.99-8.34.5-1.12.48-3.06-.18-4.02-18.73-27.25-37.58-54.43-56.42-81.61-.2-.28-.57-.44-1.06-.8-8.71,6.2-17.44,12.42-26.17,18.63-7.33,5.21-14.77,10.27-21.93,15.7-1.91,1.45-3.62,3.8-4.33,6.07-3.74,12.02-7.57,24.04-10.51,36.27-2.45,10.21-2.61,20.61-.52,31.14,1.5,7.53,1.67,15.35,2.01,23.05.13,2.88.98,4.06,3.74,4.25,1.48.1,2.99.4,4.41.85,3.15,1,5.55,2.45,5.17,6.56-.53,5.68-.45,11.42-.88,17.11-.32,4.19-2.54,5.51-6.64,4.26-5.58-1.7-11.14-3.45-16.95-5.26-.36,1.82-.56,3.27-.93,4.66-1.75,6.49-4.15,12.54-10.55,16.01-1.3.7-2.47,1.73-3.53,2.77-2.11,2.09-3.06,4.28.03,6.4.3.21.53.53.8.79,4.96,4.82,6.44,5.01,9.71-.81,1.16-2.06,2.46-4.08,3.97-5.89.62-.74,1.95-.9,2.96-1.32.05,1.1.54,2.44.08,3.25-1.66,2.93-3.51,5.76-5.52,8.46-1.37,1.84-1.71,3.49-.41,5.43,3.43,5.12,2.36,9.72-.58,14.92-4.43,7.82-10.05,14.53-16.19,20.93-5.14,5.36-12.31,5.38-17.4,0-3.42-3.62-6.83-7.26-10.28-10.86-2.82-2.94-3.25-7.04-.95-10.51,2.13-3.21,4.33-6.38,6.75-9.95-2.2-.83-4.14-1.48-6.01-2.29-12.59-5.48-25.16-10.98-37.73-16.51-4.27-1.88-4.96-3.77-2.94-7.9,1.2-2.45,2.49-4.85,3.95-7.68-2.28-1.31-4.44-2.47-6.51-3.75-10.59-6.57-21.16-13.17-31.74-19.76-.35-.22-.7-.45-1.04-.68.08.51.16,1.01.24,1.52,3.17,9.3,6.34,18.6,9.5,27.91.2.59.55,1.23.47,1.79-.12.88-.56,1.71-.86,2.56-.68-.58-1.72-1.04-1.96-1.77-.94-2.84-1.38-5.85-2.44-8.63-3.49-9.19-7.47-18.2-10.69-27.48-2.87-8.28-6.46-16.67-2.6-26.15-3.4-.76-6.63-1.57-9.9-2.14-.57-.1-1.64.62-1.92,1.22-4.32,9.52-8.54,19.08-12.9,28.87,3.48,1.46,6.62,2.64,9.6,4.14.83.42,1.2,1.76,1.78,2.68-1.08.21-2.3.86-3.21.56-3.19-1.05-6.26-2.43-9.72-3.82-2.34,5.3-4.64,10.53-6.95,15.76-2.17,4.91-4.47,9.76-6.48,14.72-5.67,13.97-14.92,23.96-29.47,29.29-25.9,9.47-51.57,19.55-77.33,29.4-16.55,6.33-33.02,12.85-49.65,18.95-4.27,1.56-9,1.85-13.52,2.72l-.29-1.29c13.1-5.05,26.19-10.11,39.3-15.14,34.59-13.27,69.18-26.57,103.8-39.77,8.33-3.17,14.27-8.92,18.78-16.34.44-.72.44-2.23-.03-2.88-3.58-4.92-7.34-9.72-11.24-14.82-4.26,3.28-8.34,6.32-12.27,9.55-.6.5-.87,1.93-.67,2.78.53,2.17,1.63,4.21,2.06,6.39.24,1.21-.42,2.6-.67,3.91-.91-.84-2.14-1.52-2.65-2.55-1.04-2.11-1.68-4.42-2.63-7.03-10.2,7.69-20.24,15.27-30.54,23.04,1.68,2.62,3.29,5.13,4.91,7.65-.31.21-.63.42-.94.62-1.31-1.85-2.45-3.87-4.02-5.47-.77-.79-2.53-1.38-3.53-1.07-4.27,1.36-8.4,3.19-12.65,4.62-.88.29-2.1-.41-3.16-.65.62-.92,1.04-2.29,1.9-2.67,3.87-1.71,7.86-3.14,12.52-4.95-13.55-17.32-26.85-34.34-40.41-51.67-4.4,3.35-8.56,6.49-12.7,9.66-9.12,6.99-18.22,14-27.34,20.99-4.51,3.46-4.98,3.42-6.47-2.22-7.86-29.65-15.94-59.24-23.3-89.01-6.73-27.23-12.62-54.67-18.89-82.02-.16-.69-.39-1.37-.76-2.61-3.36,3.23-6.4,6.11-9.39,9.04-3.83,3.77-7.84,7.39-11.36,11.42-8.59,9.84-20.33,8.16-28.77,1.36-11.66-9.39-23.07-19.05-35.74-27.17-11.28-7.24-23.45-12.3-36.19-15.81-6.64-1.83-13.83-1.85-20.79-2.3-6.09-.4-11.81-1.4-16.78-5.3-2.24-1.76-5.01-2.84-7.32-4.53-8.34-6.11-17.71-8.12-27.88-7.61-8.73.44-17.49.28-26.2.88-2.62.18-5.86,1.32-7.56,3.18-14.17,15.44-28.05,31.15-42.01,46.79-.4.45-.66,1.01-.95,1.47.2.34.28.69.44.74,6.62,1.81,8.84,6.92,10.16,12.97,3.67,16.79,7.5,33.54,11.36,50.73,2.31-2.69,4.59-5.57,7.14-8.18.84-.85,2.39-1,3.62-1.47-.27,1.3-.34,2.69-.86,3.89-.43.99-1.27,1.9-2.14,2.57-6.86,5.33-7.61,11.83-4.73,19.7,2.04,5.59,3.04,11.57,4.27,17.42.25,1.2-.5,2.61-.78,3.92-.96-1.02-2.53-1.91-2.78-3.08-5.09-23.39-9.94-46.83-15.04-70.22-1.46-6.69-3.38-13.3-5.39-19.85-1.41-4.58-8.01-6.24-11.75-3.3-4.14,3.26-8.28,6.35-8.43,12.42-.04,1.73-1.28,3.48-2.14,5.14-5.74,11.04-8.81,23.01-12.4,34.82-2.61,8.58-5.55,17.08-8.76,25.46-6.21,16.22-7.99,33.09-8.15,50.27-.04,4.73-.46,9.47-.51,14.2-.03,2.86-1.41,3.68-4,3.51-1.99-.13-4.03.15-5.98-.14-.82-.12-1.48-1.26-2.21-1.93.72-.57,1.38-1.52,2.16-1.63,1.83-.24,3.72-.08,6.18-.08.21-5.47.61-10.76.58-16.05-.1-19.06,3.37-37.38,10.41-55.13,3.26-8.21,5.47-16.83,8.4-25.18,3.46-9.86,7.19-19.62,10.8-29.43.49-1.33,1-2.65,1.49-3.98-.32-.24-.64-.48-.96-.72-4.31,3.87-8.79,7.57-12.89,11.65-10.31,10.23-17.71,22.65-24.28,35.35-3.47,6.71-4.52,14.73-6.26,22.26-3.15,13.6-6,27.28-8.95,40.93-.21.97-.09,2.01-.33,2.97-1.97,7.75.23,13.64,7.44,17.56.82.44,1.06,1.93,1.58,2.94-1.09-.17-2.45.02-3.21-.57-3.19-2.5-6.2-5.23-9.87-8.39-2.5.81-6.03,1.62-9.28,3.07-5.03,2.25-9.72,1.24-14.48-.62-3.24-1.26-6.44-2.72-9.79-3.6-1.78-.47-3.83.09-5.76.18,0-1.25,0-2.5,0-3.75,6.02-.71,11.12,2.1,16.48,4.11,2.95,1.1,6.37,2.02,9.38,1.6,4.13-.57,8.11-2.4,12.08-3.9.78-.3,1.58-1.45,1.75-2.33,3.42-17.21,6.57-34.48,10.17-51.66,1.58-7.54,2.92-15.44,6.26-22.25,10.53-21.47,25.81-39.31,44.85-53.81,9.02-6.87,16.42-15.13,23.41-25.06-2.55-.46-4.58-.67-6.5-1.24-1.02-.3-1.86-1.24-2.77-1.88.8-.62,1.59-1.74,2.39-1.75,1.92-.03,4.02.08,5.74.84,2.61,1.14,4.33,1.12,6.4-1.24,5.59-6.38,11.53-12.45,17.3-18.67,3.68-3.96,7.32-7.96,10.76-11.7-14.36-2.75-28.53-5.61-42.76-8.14-13.58-2.41-26.39-6-36.44-16.48-3.15-3.29-7.76-5.12-12.81-5.48-6.83-.49-13.61-1.72-20.42-2.58-6.75-.85-13.52-1.63-20.62-2.48-.82,8.73-1.49,17.04-2.46,25.31-.23,1.94-1.43,3.77-2.18,5.66-.29-2.05-.95-4.14-.8-6.16.62-8.3,1.49-16.58,2.3-25.16-7.45-.89-14.48-1.73-21.51-2.57,0-1,0-2,0-3Zm227.31-249.57c-.22-.13-.45-.26-.67-.39.17.18.35.36.52.54.27.23.54.46.81.69.46.3.93.6,1.39.9.42.4.85.79,1.27,1.19.12-.16.25-.31.37-.47-.49-.31-.97-.63-1.46-.94-.46-.29-.91-.57-1.37-.85-.28-.22-.57-.45-.85-.67Zm-3-2.25c-.23-.12-.47-.25-.7-.37.15.21.31.41.46.62.29.21.57.43.86.64.23.12.47.25.7.37-.15-.21-.31-.41-.46-.62-.29-.21-.57-.43-.86-.64Zm-7.6-5.14c.22.13.45.26.67.39-.17-.19-.34-.37-.51-.56-.22-.13-.45-.27-.67-.4.17.19.34.38.51.57Zm169.59,119.02c-.44-.32-.88-.65-1.33-.97-.7-.52-1.4-1.03-2.1-1.54l-1.75-1.31c-.99-.75-1.97-1.49-2.96-2.24-.18.28-.37.57-.55.85.99.63,1.99,1.26,2.99,1.89l1.79,1.24c.75.5,1.5,1.01,2.25,1.51.44.33.88.66,1.32.99.38.23.76.46,1.15.67,0,0,.19-.26.18-.28-.32-.29-.66-.55-.99-.83Zm-151.45-106.45c-.43-.34-.87-.67-1.3-1.01l-1.52-1.01c-.11.16-.22.31-.33.47.48.34.96.69,1.44,1.03.44.33.88.66,1.31.99.52.36,1.04.73,1.56,1.09.12-.16.25-.33.37-.49-.51-.36-1.03-.72-1.54-1.08Zm-15.16-10.31c.47.29.93.59,1.4.88.42.39.84.79,1.26,1.18.12-.16.25-.31.37-.47-.48-.31-.96-.63-1.44-.94-.44-.33-.87-.67-1.31-1-.48-.34-.97-.69-1.45-1.03-.1.17-.2.33-.31.5.5.29.99.59,1.49.88Zm19.19,13.07c-.54-.38-1.08-.76-1.62-1.14-.12.16-.24.32-.36.48.49.39.97.77,1.46,1.16,7.05,6.27,31.1,22.65,33.14,22.35-.33-.47-.52-.95-.86-1.18-10.57-7.24-21.16-14.45-31.75-21.67Zm164.11,115.5c-.29-.09-.58-.17-.87-.26.16.22.32.43.48.65.74.65,1.44,1.38,2.24,1.95,18.06,12.94,36.11,25.91,54.23,38.78,8.85,6.29,17.84,12.4,26.8,18.53.8.55,1.91.65,2.88.96.13-.39.26-.77.39-1.16-1.66-1.29-3.27-2.65-4.99-3.86-25.05-17.56-50.1-35.11-75.2-52.6-1.81-1.26-3.96-2.01-5.96-2.99Zm-317.62-34.08c.17.14.34.27.51.41l-.09-.84c-7.11-12.97-14.21-25.93-21.35-38.88-.26-.47-.83-1.04-1.28-1.07-5.85-.37-11.71-.66-18.15-.99,6.71,12.28,12.97,23.87,19.45,35.34.62,1.1,2.56,1.69,4,2.06,5.61,1.43,11.27,2.68,16.91,3.99Zm36.68,26.3l.78.31c-.04-.29-.08-.57-.12-.86-4.71-8.2-9.55-16.34-14.11-24.62-7.13-12.95-16.2-24.85-21.38-38.87-.25-.68-1.15-1.58-1.76-1.59-5.5-.12-11-.07-16.8-.07.51,1.24.82,2.31,1.36,3.25,5.83,10.29,11.66,20.57,17.55,30.82,1.98,3.45,3.49,7.6,6.38,10.02,9.06,7.57,18.69,14.46,28.1,21.62Zm517.4,266.24c-12.69,9.57-25.38,19.14-38.28,28.87,2.63,2.95,4.88,5.29,6.89,7.82.72.91.88,2.26,1.3,3.41-1.2-.51-2.67-.73-3.53-1.57-2.46-2.41-4.68-5.08-7.12-7.79-4.82,3.65-9.35,7.08-14.27,10.8,4.58,5.83,8.99,11.36,13.27,16.98.63.82.68,2.09.99,3.15-1.1-.42-2.43-.58-3.26-1.32-1.45-1.29-2.6-2.93-4.74-5.43-1.53,10.3-3.34,19.45-4.13,28.68-.89,10.41-3.14,19.67-13.4,24.86-.3.15-.48.55-.84.97,3.61,4.7,7.22,9.4,11.21,14.59.95-2.05,1.64-3.46,2.28-4.89,12.22-27.29,24.37-54.61,36.69-81.85,5.59-12.37,11.55-24.57,17.34-36.85.14-.17.28-.33.41-.5-.28.03-.56.06-.83.08Zm-74.75-183.47c.5.28.76.97,1.14,1.46,4.16,5.41,8.32,10.82,12.58,16.37,5.25-4.77,10.18-9.26,15.23-13.84-3.03-3.17-5.82-5.87-8.3-8.82-.84-1.01-.91-2.67-1.33-4.03,1.33.48,2.93.64,3.95,1.49,3.11,2.61,6,5.48,9.13,8.4,5.63-4.92,11.44-10,16.78-14.67-3.38-5.37-6.76-10.26-9.62-15.44-1.87-3.38-3.48-6.29-8.05-4.48-.53.21-1.66.18-1.77-.06-.39-.91-.99-2.42-.59-2.86,2.41-2.64,8.82-1.41,10.66,1.65,3.81,6.33,6.19,13.65,12.38,18.33.36-.19.6-.28.79-.43,3.52-2.99,7.05-5.98,10.54-9,2.36-2.04,6.09-3.85,6.59-6.29.53-2.59-2.03-5.81-3.24-8.75-.05-.12-.15-.23-.14-.34.08-.98.17-1.96.26-2.93.84.53,2.02.87,2.46,1.64,1.53,2.68,2.79,5.51,4.25,8.46,7.98-4.74,15.68-9.31,23.77-14.12-2.42-3.02-4.72-5.63-6.67-8.47-.66-.97-.45-2.53-.64-3.82,1.21.54,2.73.78,3.56,1.67,2.5,2.7,4.73,5.65,7.21,8.68,8.27-5.58,16.09-10.86,24.08-16.25-4.28-5.61-8.58-10.39-11.89-15.79-4.19-6.85-9.33-10.66-17.57-8.42-1.67.45-3.59,1.02-4.75,2.17-2.83,2.8-5.2,6.06-7.95,8.96-.75.8-2.17.97-3.28,1.43.38-1.16.5-2.5,1.18-3.43,1.78-2.41,3.8-4.64,5.73-6.94-3.42-.02-6.28.9-9.21,1.26-4.43.54-9.07,1.58-13.33.79-6.95-1.29-13.74-3.66-20.46-5.96-18.77-6.43-37.47-13.07-56.21-19.59-1.26-.44-2.83-1.09-3.94-.72-12.46,4.18-26.51,5.01-35.49,16.62-.6.78-1.47,1.35-2.22,2-2.09,1.81-3.53,3.5.15,5.24.59.28.67,1.62.98,2.47-.55.18-1.3.68-1.62.48-1.62-1.01-3.91-1.91-4.46-3.4-.54-1.46.15-4.17,1.3-5.33,7.73-7.77,15.43-15.66,27.21-17.19,2.8-.36,5.47-1.68,8.49-2.66-10.2-4.5-20.35-3.12-30.41-2.72-1.19.05-2.54.46-3.49,1.15-5.11,3.74-10.72,7.04-15.03,11.58-12.11,12.75-25.61,22.94-43.04,27.17-8.65,2.1-17.3,3.76-26.26,2.79-4.06-.44-8.13-.74-12.19-1.11,6.23,5.37,12.64,9.9,19.14,14.28.77.52,2.1.41,3.13.29,14.02-1.68,27.24-6.06,39.97-11.99,3.22-1.5,6.25-.91,8.77,1.01,1.81,1.38,2.95,3.67,4.33,5.6,2.53,3.53,1.91,7.19-1.86,9.47-3.62,2.19-7.28,4.4-11.16,6.04-5.91,2.5-12.02,4.52-18.37,6.86,1.06.84,1.89,1.54,2.76,2.18,14.07,10.29,28.27,20.39,42.18,30.89,16.63,12.54,33.89,24.41,46.86,41.14,2.05,2.64,4.4,5.06,6.81,7.81,7.08-5.87,13.95-11.58,20.97-17.4-.95-1.34-1.7-2.47-2.52-3.54-3.78-4.97-7.65-9.88-11.3-14.94m-20.33-121.89c-1.03-2.07-1.6-3.88-2.68-5.31-3.51-4.66-7.29-9.12-10.83-13.76-15.14-19.85-30.24-39.73-45.32-59.63-1.4-1.85-2.73-3.13-5.41-3.24-11.97-.5-24.01-.65-35.85-2.22-7.69-1.02-11.35,1.65-14.53,8.15-4.15,8.5-10.22,16.13-13.78,24.82-2.8,6.85-6.2,12.96-10.95,18.44-.81.93-2.3,1.28-3.47,1.9.33-1.19.33-2.67,1.05-3.54,4.59-5.49,8.69-11.16,10.47-18.31.58-2.34,2.26-4.42,3.51-6.57,4.39-7.55,8.82-15.08,13.21-22.63.45-.78.76-1.64,1.25-2.72-30.17-1.67-59.9-3.32-90.03-4.99-.72,12.56-1.42,24.81-2.12,37.16,1.99.22,3.46.4,4.94.53,1.49.13,2.99.17,4.48.32,4.27.44,5.99,2.18,5.37,6.34-.51,3.39-1.57,6.77-2.84,9.97-3.73,9.36-7.7,18.63-11.55,27.9.61.56.94.94,1.34,1.23,18.25,12.87,36.47,25.79,54.79,38.56,3.11,2.17,6.45,4.72,10,5.38,9.89,1.84,20.02,4.23,29.92,3.77,22.04-1.03,41.09-9.81,55.94-26.55,5.2-5.86,11.11-10.75,18.04-14.36,1.92-1,4.18-1.77,6.32-1.86,8.93-.35,17.94-1.76,26.7,1.35.31.11.71-.04,2.03-.14Zm-78.38,371.99c5.09,6.97,9.91,13.57,14.99,20.53,1.79-.92,3.82-1.63,5.46-2.86,10.29-7.71,20.53-15.5,30.65-23.42,1-.78,1.8-2.76,1.59-4-3.98-23.21-8.1-46.4-12.23-69.58-1.71-9.57-3.62-19.11-5.19-28.71-1.05-6.41-.53-12.16,5.94-16.26,5.56-3.53,10.47-8.07,15.66-12.18,2.11-1.67,4.19-3.38,6.5-5.25-11.74-14.75-23.21-29.16-34.88-43.83-9.86,8.29-19.48,16.38-29.31,24.64,2.03,3.21,3.71,6.28,5.78,9.05,2.07,2.75,1.83,4.61-.88,6.84-7.9,6.51-15.55,13.31-23.4,19.88-1.58,1.32-3.51,2.35-5.44,3.09-4.59,1.77-5.52,2.84-5.37,7.88.07,2.46.53,4.9.84,7.53,8.24-1.92,16.25-3.78,24.25-5.65,5.54-1.29,5.69-1.33,7.02,4.23,7.68,31.98,15.24,64,22.96,95.97.76,3.16-.11,4.45-3.17,5.31-7.17,2.03-14.24,4.39-21.78,6.76Zm327.31-192.17c9.7,13.76,19.24,27.28,28.93,41.03,9.41-6.71,18.49-13.19,27.48-19.6-1.07-2.7-1.96-4.95-3.1-7.82-2.78,2.12-5.16,4.07-7.7,5.78-.76.52-1.96.38-2.97.55.08-.99-.23-2.5.3-2.9,7.42-5.62,14.96-11.1,22.47-16.6,6.57.74,11.58-2.46,16.43-6.28,1.22-.96,2.99-1.2,4.49-1.81,3.41-1.39,6.81-2.81,10.38-4.29-3.41-8.84-6.63-17.2-9.99-25.91-4.7,1.55-9.15,3.09-13.66,4.43-1,.3-2.22-.12-3.34-.2.81-.85,1.46-2.11,2.45-2.49,4.27-1.66,8.65-3.07,13.4-4.71-1.8-4.78-3.49-9.28-5.21-13.85-.95.17-1.57.21-2.14.39-4.64,1.45-9.39,2.64-13.87,4.47-9.43,3.85-9.37,3.99-11.28-6.1-.07-.37-.31-.79-.2-1.09.36-.94.85-1.83,1.28-2.75.78.62,1.98,1.08,2.27,1.88.76,2.06,1.13,4.26,1.64,6.33,7.09-2.41,13.89-4.71,21.08-7.16-3.53-8.59-6.98-16.96-10.52-25.58-1.48.78-2.28,1.11-2.98,1.59-17.45,12.06-34.84,24.21-52.38,36.14-3.21,2.19-3.37,4.09-.93,7,1.92-.78,3.82-1.71,5.82-2.3.87-.26,1.93.16,2.91.26-.42,1.03-.57,2.34-1.31,3.01-.86.79-2.2,1.18-3.39,1.48-2.75.68-3.11,2.14-2.2,4.67,1.42,3.99,2.58,8.07,3.66,12.17,1.42,5.39.79,6.89-3.7,10.1-4.64,3.32-9.27,6.67-14.13,10.17Zm-49.69,184.6c.74-8.09,1.48-16.32,2.28-25.06-6.46,1.97-12.15,3.79-17.89,5.44-4.27,1.23-5.56.45-6.82-3.81-.81-2.75-1.51-5.53-2.35-8.27-1.4-4.57-2.88-9.12-4.39-13.89-3.99,1.48-7.46,2.88-11.01,4.02-1.99.64-2.46,1.54-1.86,3.57,1.58,5.38,2.81,10.86,4.44,16.22.75,2.46.05,3.33-2.3,3.91-4.21,1.05-8.33,2.47-12.52,3.6-.94.25-2.02-.03-3.03-.07.61-.88,1.04-2.23,1.86-2.56,4.13-1.61,8.36-2.96,12.92-4.52-1.59-5.82-3.21-11.78-4.9-18-6.79,2.47-13.15,5.03-19.69,7.01-2.15.65-5.5.74-7.01-.49-6.29-5.12-13.81-4.12-20.57-5.47-4.85,10-6.93,20.15-6.38,30.8.25,4.86,1.23,9.43,5.76,12.32,5.87,3.74,11.74,7.48,17.94,11.44,1.91-2.83,3.63-5.56,5.55-8.13.85-1.14,2.02-2.62,3.23-2.83,12.64-2.19,25.27-4.81,38.02-5.95,9.23-.83,18.64.39,28.71.72Zm-95.31-369.2c-8.3,7.15-16.21,14.01-24.18,20.79-1.09.93-2.46,1.94-3.79,2.09-5.97.68-10.91-1.09-14.65-6.2-8.32-11.38-16.86-22.6-25.31-33.89-3.86-5.15-7.73-10.3-11.71-15.6-4.96,3.81-9.59,7.36-14.39,11.04.91,1.21,1.71,2.31,2.54,3.37,5.7,7.26,11.45,14.49,17.07,21.82.6.78.47,2.11.68,3.19-1-.45-2.3-.63-2.95-1.38-2.44-2.83-4.66-5.85-6.98-8.79-4.23-5.37-8.47-10.74-12.86-16.3-4.26,3.19-8.22,6.14-12.29,9.18,2.39,3.59,5.69,6.56,6.42,10.06,1.46,6.98,6.27,8.78,11.95,10.17.72.18,1.4.52,2.11.76,22.19,7.53,44.43,14.93,66.55,22.66,7,2.44,13.67,1.45,20.58.11,6.94-1.35,13.97-2.25,20.95-3.35.76-.12,1.52-.28,2.65-.49-7.56-9.87-14.83-19.37-22.39-29.24Zm.28,253.32c11.07,13.96,21.89,27.66,32.78,41.3,1.57,1.96,6.94,2.49,8.58.96,6.63-6.19,13.21-12.44,20.13-18.97-10.99-14.53-22.32-29.5-33.81-44.69-5.59,4.16-10.73,8-16.05,11.95,2.72,3.34,5.16,6.17,7.38,9.17.69.93.75,2.32,1.09,3.5-1.11-.53-2.5-.79-3.27-1.62-2.66-2.89-5.09-5.98-7.68-9.08-3.16,2.58-5.94,4.85-9.15,7.48ZM67.33,227.13c36.12,1.38,71.98,2.74,108.54,4.13-3.14-5.26-5.93-10.08-8.91-14.78-.39-.62-1.71-.9-2.61-.91-9.85-.19-19.72-.11-29.56-.45-17.21-.6-34.41-1.49-51.61-2.17-4.43-.18-8.88-.03-13.47-.03-.77,4.64-1.53,9.17-2.37,14.21Zm624.78,426.33c-1.27,3.36-2.77,6.79-3.79,10.36-.35,1.22.12,3.05.88,4.12,1.73,2.42,4.66,4.23,5.68,6.84,1.96,5.04,5.51,7.69,10.26,9.44,2.1.78,4.05,1.94,6.08,2.91,6.95,3.32,13.9,6.64,20.77,9.92,9.58-12.18,13.48-24.77,10.77-34.67-8.37-.78-16.9-1.04-25.22-2.5-8.41-1.47-16.61-4.14-25.42-6.41ZM97.1,232.03c1.51,3.45,2.45,6.3,3.92,8.84,7.81,13.49,15.78,26.88,23.62,40.35,3.19,5.49,6.81,10.85,9.04,16.73,1.69,4.47,4.52,6.94,8.51,7.98,4.77,1.24,9.77,1.54,15.51,2.37-1.26-3.07-1.98-5.56-3.24-7.75-5.1-8.86-10.43-17.59-15.56-26.43-7.68-13.25-15.24-26.57-22.92-39.82-.41-.7-1.47-1.38-2.27-1.43-5.21-.36-10.44-.54-16.6-.83Zm651.27-31.33c-3.57.91-6.77,1.92-10.04,2.5-2.83.5-3.64,2.06-4.19,4.69-.46,2.23-1.67,4.63-3.27,6.23-6.5,6.46-13.27,12.64-20.56,19.49,8.61,8.4,16.9,16.49,25.18,24.59,3.56,3.49,4.29,3.45,7.72-.78-.46-.56-.91-1.15-1.4-1.71-2.9-3.27-5.85-6.48-8.66-9.83-.48-.57-.32-1.68-.46-2.54.84.21,1.81.22,2.48.68.9.62,1.58,1.58,2.34,2.41,2.92,3.21,5.84,6.43,8.59,9.47,4.46-1.41,5.77-4.02,5.38-8.3-.85-9.3-1.16-18.66-1.75-27.99-.39-6.2-.88-12.39-1.35-18.9Zm-545.66,28.17c-6.12,3.42-11.84,6.62-17.76,9.92,11.16,19.02,22.11,37.69,33.21,56.62,6.33-3.63,12.24-7.02,18.3-10.5-11.3-18.76-22.41-37.21-33.75-56.04Zm-61.05,5.52c1.58,6.21,3.16,12.82,5.02,19.36.36,1.25,1.83,2.18,2.8,3.25,3.49,3.85,7.41,7.4,10.36,11.62,3.92,5.6,7.08,11.73,10.58,17.62,4.75,8.01,9.52,16,14.31,24.06,4.9-1.76,9.43-3.39,14.3-5.14-.77-1.42-1.31-2.5-1.93-3.54-11.13-18.9-22.32-37.77-33.37-56.72-1.48-2.53-2.16-5.52-3.47-8.16-.48-.98-1.7-2.21-2.63-2.25-5.45-.21-10.92-.1-15.98-.1Zm512.85,18.6c8.19,10.72,15.78,20.75,23.57,30.64.57.72,2.78.93,3.74.43,9.97-5.12,20-10.17,29.61-15.91,2.11-1.26,3.44-5.19,3.54-7.94.06-1.57-2.82-4.1-4.85-4.76-16.17-5.33-32.71-7.89-49.72-4.92-1.9.33-3.66,1.51-5.89,2.48Zm-21.41,14.05c-14.76-19.2-29.25-38.04-43.84-57.03-4.95,3.82-9.28,7.16-13.9,10.73,2.01,2.71,3.85,5.2,5.7,7.68,10.62,14.19,21.23,28.39,31.88,42.57,2.84,3.78,8.56,5.6,11.55,3.45,2.81-2.02,5.29-4.51,8.61-7.39ZM118.61,232.93c.84,1.82,1.24,2.96,1.85,3.99,8.3,14.07,16.8,28.02,24.87,42.21,5.28,9.28,12.09,17.76,15.1,28.26.15.52.67,1.25,1.1,1.32,6.31.89,12.54,2.88,19.65,1.94-.97-1.76-1.63-3.04-2.37-4.29-5.96-10.09-11.94-20.17-17.91-30.25-3.81-6.43-7.43-12.93-13.9-17.36-1.78-1.22-2.96-3.79-3.69-5.98-1.85-5.52-3.22-11.21-4.98-16.76-.29-.92-1.53-2.11-2.42-2.19-5.45-.44-10.93-.6-17.31-.89Zm655.73,223.46c9.24,14.16,18.33,28.09,27.53,42.17,7.11-5.06,13.91-9.89,20.9-14.86-9.68-13.74-19.22-27.27-28.91-41.02-6.59,4.63-12.98,9.11-19.52,13.7Zm-470.11-230.55c.64-10.89,1.38-20.68,1.73-30.48.2-5.54,4.14-8.81,9.6-8.27,2.54.25,5.12.04,7.96.04.44-5.4.92-10.48,1.16-15.56.03-.67-1.17-1.95-1.88-2.01-10.54-.86-21.1-1.57-31.77-2.32-.19.59-.42,1.04-.46,1.5-1.15,14.03-2.3,28.06-3.34,42.1-.07.97.38,2.38,1.09,2.95,4.97,3.91,10.07,7.66,15.92,12.05Zm290.42,247.9c-8.87,7.09-17.58,14.05-26.45,21.14,7.33,9.76,14.42,19.21,21.69,28.89,9.01-7.28,17.86-14.44,26.56-21.46-7.35-9.63-14.37-18.83-21.8-28.57Zm168.23,240.76c.22-.18.45-.36.67-.54-1.89-2.74-3.45-5.81-5.77-8.11-2.3-2.29-5.56-3.59-8.06-5.71-2.99-2.54-5.27-2.69-8.39-.33-2.54,1.91-5.39,3.41-8.06,5.16-.98.64-2.52,1.42-2.6,2.26-.64,6.62-5.12,11.2-8.17,16.57-.88,1.55-.98,4.67.01,5.93,3.15,3.99,6.88,7.55,10.58,11.08,3.23,3.08,7.63,3.66,10.16,1.41,7.92-7.03,14.12-15.41,18.88-24.84.43-.86.5-1.9.74-2.86Zm-210.45-481.03c-.03-.43.01-.59-.05-.68-12.66-16.68-25.33-33.36-38.03-50.02-.49-.64-1.28-1.37-2-1.45-6.4-.7-12.81-1.25-19.99-1.92,1.02,1.61,1.53,2.55,2.18,3.4,6.1,8.05,12.23,16.07,18.34,24.11,8.15,10.72,16.4,21.36,24.39,32.2,2.26,3.06,3.96,3.35,6.76.79,2.64-2.41,5.68-4.38,8.41-6.43Zm-17.94,387.78c-15.77,12.03-31.31,23.89-47.15,35.97,3.69,4.68,7.72,9.8,11.88,15.08,15.69-12.21,31.02-24.14,46.57-36.24-3.96-5.19-7.64-10.01-11.3-14.81Zm106.27-89.14c-6.84-8.48-13.46-16.7-20.29-25.17-9.03,7.43-17.83,14.67-26.69,21.96,6.58,8.56,12.87,16.74,19.33,25.16,9.24-7.33,18.28-14.51,27.65-21.94Zm13.12-324.73c11.51,12.9,22.65,25.51,34.05,37.88.94,1.02,4.44,1.2,5.5.3,4.35-3.67,8.21-7.91,12.34-12.03-13.04-13.5-25.84-26.74-38.88-40.23-4.38,4.73-8.5,9.2-13.02,14.08Zm-490.18,27.12c-.48.41-.95.82-1.43,1.23,12.6,23.06,26.59,45.32,39.88,68.44,4.45-2.41,8.46-4.58,12.81-6.94-12.03-20.37-23.82-40.34-35.66-60.27-.44-.75-1.42-1.57-2.22-1.64-4.45-.39-8.92-.56-13.39-.81Zm621.26-27.46c-10.76-2.02-21.56-4.05-32.61-6.13,1.02,16.68,2.01,32.78,3,48.98,19.24-7.79,27.75-22.74,29.6-42.85Zm-83.5,107.33c6.32,8.19,12.38,16.04,18.65,24.17,9.03-6.73,17.77-13.25,26.79-19.97-5.8-8.38-11.36-16.42-17.21-24.87-9.53,6.97-18.73,13.71-28.24,20.67Zm-46.67,268.27c5.91,1.02,11.63,2.02,17.61,3.05.42-.76,1.13-1.67,1.47-2.7,2.28-6.96,4.13-14.09,6.81-20.89,2.34-5.95,1.4-10.46-3.09-15-4.22-4.27-7.73-9.26-11.93-14.41-4.84,10.4-9.37,20.08-13.81,29.8-.3.65-.07,1.64.14,2.41.64,2.34,1.68,4.61,2.02,6.99.51,3.54.55,7.15.78,10.74Zm-252.64-46.91c11.82-2.92,23.29-5.75,34.61-8.54v-13.77c-3.12.98-6.16,2.06-9.28,2.83-1.1.27-2.38-.22-3.58-.37.92-.82,1.71-1.99,2.79-2.4,3.45-1.31,7.01-2.33,10.66-3.51-.64-2.57-1.31-4.72-1.68-6.91-.51-2.99-1.67-3.82-4.84-2.87-7.63,2.29-15.4,4.13-23.12,6.14-2.77.72-5.68,1.11-8.26,2.24-1.17.51-2.58,2.63-2.37,3.74,1.44,7.7,3.28,15.33,5.08,23.41Zm362.29-192.24c-8.59,6.62-16.86,13-25.33,19.54,6.53,8.53,12.87,16.81,19.3,25.22,8.12-6.58,15.96-12.92,24.01-19.45-6.03-8.48-11.91-16.77-17.98-25.31Zm-194.41-123.48c-3.78-5.05-7.46-9.89-11.06-14.78-4.21-5.71-8.91-11.17-12.31-17.33-1.76-3.19-3.11-4.92-6.7-4.52-.72.08-1.48-.18-2.23-.23-6.13-.44-12.26-.87-19.37-1.37,12.88,16.9,25.13,32.98,37.47,49.17,4.91-3.78,9.44-7.27,14.2-10.93Zm52.73,232.94c-7.56,5.63-14.91,11.09-22.5,16.74,7.31,9.62,14.36,18.91,21.69,28.57,7.61-6.11,14.86-11.92,22.28-17.88-4.13-5.24-8.02-10.18-11.95-15.17-2.22,2.34-4.04,4.54-6.18,6.39-1.02.88-2.62,1.09-3.96,1.6.69-1.28,1.22-2.7,2.11-3.82,1.9-2.38,3.98-4.61,5.96-6.86-2.69-3.46-4.98-6.39-7.46-9.57ZM177.78,185.65c-6.16,3.93-11.9,7.59-17.91,11.42,7.74,12.96,15.31,25.63,23.03,38.54,6.2-3.47,12-6.72,18.01-10.09-7.83-13.49-15.38-26.51-23.13-39.88Zm555.71,222.66c-7.12-8.33-13.96-16.32-21.01-24.57-7.66,5.97-14.96,11.67-22.45,17.51,6.95,8.87,13.54,17.28,20.27,25.86,7.88-6.38,15.41-12.49,23.2-18.8Zm51.99-41.81c7.79-5.86,15.31-11.52,22.96-17.28-5.2-8.1-10.17-15.99-15.35-23.73-.54-.81-2.82-1.48-3.44-1.04-7.45,5.37-14.74,10.96-22.26,16.64,6.18,8.68,12.07,16.96,18.09,25.41Zm-248.79,251.36c4.38,5.74,8.13,10.63,12.08,15.8,12.56-9.83,24.79-19.39,37.12-29.04-3.99-5.17-7.68-9.96-11.59-15.03-12.74,9.57-25.05,18.83-37.61,28.27Zm-33.95-173.42c-.18.55-.36,1.11-.55,1.66,11.26,14.15,22.52,28.3,33.87,42.55,4.86-4.1,9.31-7.86,13.96-11.79-7.95-10.34-15.64-20.45-23.51-30.41-.86-1.09-2.75-1.88-4.19-1.93-6.52-.2-13.05-.09-19.58-.09Zm250.54,157.08c5.51.68,10.4,1.3,15.29,1.89,2.05.25,2.95-.69,3-2.76.26-10.06,2.96-19.62,5.92-29.15,2.24-7.19,4.17-14.49,6.49-22.62-9.19,5.94-17.58,11.32-25.88,16.82-.9.59-1.72,1.92-1.82,2.99-1.08,10.76-2,21.54-3,32.83Zm3.83-39.73c12.18-7.92,24-15.59,36.17-23.5-5.23-6.41-9.91-12.16-14.79-18.14-9.73,7.51-19.1,14.72-28.41,22.01-.51.4-.9,1.62-.66,2.17,2.41,5.7,4.97,11.34,7.69,17.46Zm-12.57-84.69c-3.5,2.83-6.59,5.35-9.71,7.85q-8.15,6.54-4.06,16.25c3.1,7.32,6.26,14.61,9.54,22.27,8.93-6.23,17.48-12.2,26.34-18.38-3.75-4.65-7.28-9.04-10.98-13.62-3.54,3.74-6.77,7.03-9.82,10.48-.6.67-.41,1.99-.78,2.93-.35.87-.97,1.64-1.47,2.45-.85-.61-2.46-1.3-2.4-1.8.22-1.97.45-4.3,1.61-5.74,3.2-3.94,6.87-7.5,10.53-11.41-2.97-3.8-5.78-7.4-8.81-11.28Zm-58.62-30.28c-6.99-8.85-13.8-17.47-20.74-26.26-6.91,5.39-13.36,10.43-20.09,15.68,6.9,9,13.6,17.75,20.57,26.84,6.81-5.46,13.37-10.73,20.26-16.26Zm98.8-75.03c-8.21,6.64-16.02,12.95-24.04,19.44,3.99,5.22,7.75,10.15,11.52,15.08q5.01,6.54,11.59,1.91c6.04-4.29,12.03-8.64,18.17-13.06-5.83-7.9-11.36-15.4-17.24-23.36Zm142.59-100.28c5.01,13.71,9.8,26.92,14.74,40.08.3.8,1.84,1.74,2.68,1.64,5.52-.66,11.01-1.58,16.85-2.48-5.46-14.08-10.73-27.77-16.14-41.41-.36-.9-1.68-1.64-2.71-2.02-5.95-2.16-9.97,2.58-15.42,4.19Zm-860.09-5.43c0-.67.09-.96-.01-1.15-6.07-11.17-12.13-22.35-18.28-33.48-.4-.72-1.45-1.5-2.23-1.54-7.22-.31-14.45-.48-21.68-.61-.79-.01-1.8.31-2.34.84-5.51,5.51-4.29,10.9,2.87,13.56,3.83,1.42,7.88,2.66,11.19,4.91,3.77,2.57,7.2,5.87,10.11,9.41,5.35,6.49,12.56,7.43,20.37,8.05Zm614.61,22.57c5.81,7.6,11.52,15.07,17.34,22.68,9.61-7.05,18.92-13.87,28.34-20.78-1.09-1.58-2.23-2.81-2.87-4.25-2.86-6.51-7.31-7.97-14.47-7.08-10.1,1.26-19.35,3.95-28.34,9.44Zm145.86,88.13c-5.84-8.3-11.45-16.26-17.17-24.39-7.8,5.88-15.14,11.4-22.74,17.13,5.86,7.95,11.51,15.6,17.3,23.46,7.68-5.51,15.03-10.77,22.6-16.2Zm-349.47,272.67c-3.21-4.31-6.19-7.85-8.62-11.74-2.1-3.35-4.3-4.21-8.25-3.14-10.93,2.95-22,5.38-33.4,8.11,1.47,6.26,2.87,12.23,4.35,18.53,15.41-3.95,30.36-7.78,45.92-11.77Zm258.27-243.5c6.58-5.33,12.65-10.26,18.93-15.35-6.51-8.52-12.84-16.79-19.33-25.27-7.01,5.48-13.73,10.74-20.59,16.11,7.17,8.38,13.96,16.31,20.99,24.52Zm-185.45,230.73c3.64,4.76,7.1,9.27,10.73,14.01,9.24-7.04,18.14-14.03,27.27-20.69,4.85-3.54,3.96-9.01,5.42-13.7.1-.33-.36-.9-.65-1.28-1.79-2.36-3.62-4.69-5.66-7.33-12.49,9.76-24.71,19.31-37.11,29Zm178.04-185.51c5.49,7.01,10.7,13.65,16.17,20.64,7.99-5.53,15.79-10.93,23.7-16.4-5.23-7.77-10.14-15.07-15.21-22.61-8.29,6.18-16.25,12.11-24.65,18.38Zm-60.9-32.91c7.07,8.92,13.77,17.4,20.71,26.15,6.3-5.09,12.27-9.92,18.44-14.91-6.84-8.74-13.49-17.23-20.3-25.94-6.38,4.97-12.44,9.7-18.85,14.69Zm238.78-136.87c4.59,12.28,9.09,24.31,13.61,36.4,6.36-1.2,12.21-2.3,18.44-3.47-5.06-13.81-10.03-27.38-15.07-41.12-5.92,2.86-11.28,5.44-16.98,8.19Zm-274.09-50.85c-9.1-11.38-17.92-22.41-26.9-33.63-4.92,3.83-9.31,7.25-13.96,10.87,8.97,11.34,17.73,22.42,26.59,33.63,4.76-3.63,9.19-7.01,14.26-10.87Zm5.01.71c4.95,6.44,9.75,12.68,14.22,18.5,10-5.26,20.25-3.84,30.79-4.24-9.3-10.39-18.08-20.2-27.07-30.24-6.06,5.4-11.89,10.59-17.94,15.98Zm66.38,238.38c-7.34,5.48-14.29,10.67-21.37,15.96,5.88,7.65,11.47,14.94,17.29,22.51,7.34-5.95,14.36-11.64,21.52-17.43-5.94-7.17-11.59-13.97-17.44-21.04Zm58.02-129.28c-4.54-6.43-8.81-12.48-13.2-18.69-9.07,6.77-17.72,13.23-26.61,19.86,4.91,6.3,9.55,12.27,14.35,18.42,8.53-6.57,16.81-12.94,25.46-19.6Zm-301.37,271.57c-13.1,3.2-25.64,6.26-38.54,9.41,1.64,6.23,3.18,12.07,4.83,18.36,12.77-3.03,25.18-5.98,37.95-9.02-1.43-6.35-2.79-12.36-4.24-18.76Zm-54.08-55.41c13.14-3.12,25.82-6.13,38.81-9.22-1.26-6.26-2.45-12.18-3.68-18.29-13.18,3.28-25.96,6.45-39.06,9.71,1.33,5.98,2.56,11.53,3.94,17.79Zm526.32-194.38c-4.31-11.55-8.46-22.75-12.74-33.91-.26-.68-1.81-1.52-2.44-1.31-5.15,1.7-10.22,3.64-15.69,5.65,4.48,12.64,8.67,24.46,13,36.7,6.18-2.47,11.91-4.75,17.87-7.13Zm50.42-54.51c.07-.3.25-.59.18-.77-3.98-10.05-7.94-20.12-12.05-30.12-.47-1.14-1.69-2.43-2.82-2.76-6.28-1.85-12.64-3.43-19.6-5.26,5.56,14.29,10.85,27.89,16.1,41.38,6.28-.85,12.07-1.64,18.2-2.47Zm-561.94,310.75c13.03-3.19,25.69-6.29,38.62-9.45-1.46-6.3-2.8-12.05-4.2-18.08-12.59,3.24-24.67,6.31-36.7,9.52-.71.19-1.7,1.63-1.57,2.27,1.13,5.2,2.5,10.35,3.85,15.74Zm-9.28-37.74c1.48,6.08,2.82,11.59,4.21,17.3,13.1-3.41,25.83-6.73,38.8-10.11-1.55-6.15-3-11.88-4.55-17.98-13.01,3.65-25.57,7.17-38.47,10.78Zm214.65-7.68c7.69-5.31,15.3-10.08,22.24-15.67,2.16-1.75,4.26-6.54,3.34-8.55-2.21-4.83-6.22-8.85-9.71-13.46-9.31,7.39-18.34,14.55-27.58,21.88,4.04,5.46,7.88,10.64,11.7,15.8ZM107.27,193c5.82.28,11.28.6,16.74.8,9.83.36,19.67.74,29.51.89,1.92.03,3.85-.96,6.7-1.72-3.25-4.45-5.79-8.1-8.55-11.57-.65-.82-2.08-1.39-3.17-1.43-12.83-.41-25.67-.67-38.5-1.04-1.92-.06-2.76.61-2.74,2.53.04,3.72.01,7.45.01,11.53Zm304.42,384.67c13.03-3.67,25.72-7.25,38.47-10.85-1.36-5.84-2.53-10.91-3.84-16.53-13.02,3.09-25.77,6.12-38.84,9.23,1.47,6.34,2.81,12.11,4.21,18.15Zm373.89-97.4c-4.93-7.35-9.61-14.35-14.52-21.69-7.95,5.51-15.57,10.78-23.47,16.25,5.39,6.87,10.44,13.31,15.65,19.96,7.45-4.84,14.64-9.51,22.34-14.52Zm-21.94-206.58c-2.31-4.36-.31-7.05,2.83-9.49,1.85-1.44,3.63-3.09,5.05-4.95.61-.81.73-2.7.2-3.53-1.61-2.49-3.65-4.69-6-7.59-14.45,9.54-28.74,18.98-43.96,29.04,2.25,1.25,3.41,2.44,4.61,2.47,12.57.33,24.76-1.92,37.28-5.96Zm-121.57,164.86c-5.52,4.11-10.78,8.03-16.29,12.13,7.23,9.23,14.26,18.2,21.4,27.32,5.41-4.38,10.32-8.36,15.5-12.55-6.94-9.06-13.66-17.83-20.61-26.9Zm17.32-68.38c-13.21,11.39-26.1,22.51-39.12,33.74,2.69,3.46,5.03,6.48,7.54,9.71,13.76-10.98,27.16-21.68,40.7-32.48-3.15-3.79-5.92-7.14-9.11-10.98Zm-113.98,94.43c8.6-7.59,16.81-14.83,25.31-22.33-4.31-5.43-8.46-10.65-12.79-16.11-8.37,7.58-16.47,14.92-24.82,22.47,4.1,5.32,8.03,10.43,12.29,15.96Zm249.28-27.3c5.46-3.89,10.56-7.44,15.54-11.16.71-.53,1.29-2.04,1.07-2.87-2.18-8.22-4.53-16.4-6.99-25.12-8.78,6.33-16.63,11.98-24.64,17.75,5.13,7.31,9.92,14.14,15.02,21.4Zm85.65-54.06c10.76-4.3,21.03-8.4,31.56-12.61-2.29-6.26-4.5-12.27-6.77-18.48-10.73,4.18-21.12,8.23-31.7,12.35,2.34,6.34,4.53,12.27,6.91,18.73Zm-440.31,303.91c14.21-10.9,27.84-21.35,41.35-31.71-.41-3.21-2.11-3.18-4.37-2.58-10.25,2.7-20.53,5.31-30.8,7.95-4.29,1.11-8.58,2.22-13.13,3.4,2.33,7.71,4.52,14.94,6.94,22.94Zm129.97-147.93c-7.32-9.57-14.47-18.9-21.73-28.39-5.04,4.06-9.73,7.84-14.51,11.69,7.38,9.51,14.44,18.62,21.7,27.99,5.02-3.9,9.71-7.54,14.54-11.28Zm353.54-213.45c4.48,11.96,8.75,23.34,13.07,34.86,5.87-2.36,11.27-4.54,17.1-6.88-3.82-10.63-7.56-21-11.32-31.46-6.32,1.17-12.29,2.27-18.86,3.49Zm-166.73,104.73c5.24,7.79,10.15,15.1,15.32,22.78,6.63-4.68,12.98-9.16,19.51-13.77-5.56-7.89-10.83-15.37-16.24-23.05-6.37,4.81-12.31,9.3-18.6,14.04Zm-237.71-.36c4.04,5.34,7.76,10.26,11.71,15.48,8.46-7.66,16.54-14.98,24.76-22.43-4.2-5.29-8.14-10.24-12.37-15.55-8.05,7.51-15.93,14.86-24.11,22.49Zm371.1-99.46c8.81-4.21,17.43-8.32,26.46-12.63-4.24-11.35-8.62-23.08-13.45-36-2,2.23-4.31,3.62-4.69,5.42-2.96,14.25-5.56,28.58-8.33,43.22Zm-338.93,177.79c7.38,9.65,14.48,18.93,21.74,28.42,4.8-3.73,9.26-7.21,13.89-10.82-7.41-9.85-14.49-19.27-21.68-28.82-4.79,3.85-9.15,7.36-13.95,11.22Zm173.67-62.67c8.46-6.31,16.49-12.3,24.8-18.49-4.7-5.52-9.12-10.71-13.73-16.12-7.84,6.35-15.53,12.58-23.39,18.94,4.2,5.35,8.11,10.32,12.32,15.67Zm-159.01,46.02c9.04-7.24,17.85-14.29,26.89-21.53-3.89-5.01-7.53-9.7-11.41-14.7-8.96,7.5-17.52,14.68-26.21,21.96,3.67,4.88,7.1,9.44,10.73,14.27Zm-27.36,71.67c4.76-3.66,9.25-7.11,13.89-10.68-7.38-9.52-14.47-18.65-21.69-27.96-4.77,3.85-9.21,7.43-13.81,11.14,7.26,9.23,14.32,18.22,21.61,27.5Zm265.24-61.65c4.27,6.66,8.34,13.01,12.64,19.72,7.48-5.36,14.61-10.47,21.94-15.72-4.67-6.6-9.01-12.76-13.45-19.03-7.16,5.1-13.96,9.93-21.13,15.03Zm-79.13-13.54c6.03-4.88,11.71-9.48,17.56-14.22-5.52-7.04-10.79-13.75-16.21-20.66-6.39,4.76-12.35,9.21-18.69,13.94,5.79,7,11.4,13.77,17.34,20.94Zm-14.64-107.48c-4.92-5.73-9.56-11.15-14.29-16.67-7.48,6-14.55,11.68-21.84,17.53,4.68,5.63,9.17,11.04,13.78,16.6,7.6-5.94,14.83-11.58,22.36-17.45Zm3.02-2.31c6.97-5.45,13.78-10.78,20.77-16.24-4.86-6.24-9.44-12.11-14.3-18.35-7.03,6.05-13.85,11.92-20.78,17.88,4.91,5.73,9.51,11.1,14.31,16.71Zm10.61,115.48c-7.31,5.92-14.17,11.47-21.2,17.16,5,6.71,9.8,13.15,14.71,19.73,5.29-4.05,10.18-7.71,14.93-11.55.72-.58,1.32-2.25,1-3.02-2.93-7.26-6.07-14.44-9.44-22.32Zm-129.81,75.71c-6.89-8.7-13.36-16.86-20.03-25.28-4.83,3.76-9.5,7.39-14.44,11.23,6.63,8.67,13.02,17.03,19.56,25.59,5.09-3.94,9.79-7.58,14.91-11.54Zm-150.89-247.83c0,.32-.02.63-.02.95,4.86,3.43,9.71,6.89,14.62,10.26.63.43,1.66.78,2.33.58,10.61-3.18,21.31-6.15,30.5-12.71.73-.52,1.76-1.77,1.57-2.22-1.12-2.64-2.16-5.54-4.07-7.55-1.08-1.13-4.11-1.52-5.69-.87-12.67,5.22-25.27,10.55-39.22,11.55Zm81.97,260.86c6.29,8.42,12.36,16.54,18.59,24.87,5.32-3.86,10.23-7.42,15.45-11.21-6.53-8.48-12.87-16.72-19.39-25.18-5.01,3.94-9.68,7.62-14.64,11.53Zm2.21,125.14c7.58-5.74,14.78-11.19,22.14-16.76-4.19-5.79-8.09-11.19-12.16-16.81-7.86,6-15.27,11.65-22.83,17.42,4.31,5.42,8.42,10.58,12.85,16.15Zm418.98-386.24c3.83,10.58,7.44,20.58,11.14,30.81,6.19-2.43,11.93-4.68,17.88-7.02-3.39-8.67-6.59-17-9.95-25.26-.28-.69-1.68-1.44-2.43-1.33-5.4.78-10.77,1.78-16.63,2.8Zm-500.59,15.44c-3.35,7.9-10.48,9.14-17.05,11.29-.59.19-1.18.4-1.76.6-9.13,3.11-9.34,1.18-6.29,11.96,1.03,3.65,2.71,4.58,6.3,3.53,4.77-1.4,9.44-3.29,14.3-4.22,8.45-1.6,13.4-6.95,17.01-14.46-3.91-2.72-7.85-5.46-12.51-8.7Zm-135.2-95.56c-3.44-2.42-6.36-4.3-9.07-6.45-1.96-1.56-3.51-1.57-5.67-.25-8.08,4.94-16.28,9.66-24.43,14.49-2.11,1.25-4.17,2.55-6.5,3.98,2.4,4.07,4.58,7.76,6.85,11.6,13.04-7.85,25.62-15.42,38.82-23.36Zm232.24,327.35c6.64,8.62,12.99,16.88,19.48,25.31,4.74-3.57,9.27-6.99,13.95-10.52-6.73-8.81-13.12-17.17-19.61-25.66-4.7,3.7-9.08,7.15-13.82,10.87ZM149.31,198.7c-14.35-.63-28.21-1.23-42.16-1.84v13.54c13.92.52,27.57,1.03,41.54,1.56.22-4.59.41-8.77.62-13.25Zm441.48,332.54c-4.8,3.75-9.21,7.18-13.96,10.89,6.67,8.42,13.14,16.57,19.82,25,4.62-3.68,8.88-7.07,13.45-10.71-6.46-8.43-12.72-16.6-19.3-25.18Zm-6.13-127.36c-7.32,6.09-14.16,11.78-21.09,17.55,4.31,5.64,8.29,10.85,12.38,16.21,7.11-6.26,13.83-12.16,20.78-18.27-4.06-5.22-7.94-10.19-12.07-15.49Zm-23.62,252.15c-7.18,5.5-13.95,10.68-20.9,15.99,4.2,5.82,8.11,11.23,12.19,16.88,7.18-5.58,14.09-10.95,21.21-16.48-4.3-5.64-8.28-10.86-12.5-16.38Zm47.01-222.03c-7.47,5.96-14.46,11.55-21.69,17.32,3.97,5.24,7.7,10.17,11.6,15.32,7.62-5.67,14.97-11.13,22.48-16.72-4.23-5.43-8.19-10.51-12.4-15.92Zm-324.73-222.88c1.19-15.22,2.31-29.56,3.46-44.29-4.89-.28-9.18-.53-13.68-.78-.83,11.74-1.67,23.02-2.37,34.31-.06.93.5,2.27,1.23,2.81,3.46,2.6,7.08,4.99,11.37,7.95Zm693.13,64.03c-.25.4-.49.79-.74,1.19,3.18,7.98,6.35,15.96,9.53,23.95,2.72,6.83,2.71,6.74,9.73,6.12,2.6-.23,3.97-1.06,4.44-3.86.36-2.11,1.41-4.26,2.69-6.01,2.17-2.96,4.77-5.62,7.59-8.88-11.3-4.25-22.28-8.37-33.25-12.5Zm-653.4-84.3c-3.18,0-5.9.02-8.62,0-2.85-.03-4.44,1.27-4.61,4.18-.59,10.43-1.22,20.86-1.73,31.3-.05.99.27,2.39.95,2.95,2.89,2.33,5.98,4.42,9.8,7.18.86-2.6,1.74-4.55,2.11-6.59.39-2.19.31-4.46.43-6.69.55-10.54,1.1-21.07,1.68-32.32Zm-127.01,18.71c12.64-7.36,25.03-14.56,38.02-22.12-3.73-2.71-6.72-4.71-9.51-6.96-1.54-1.24-2.62-1.13-4.25-.15-8.21,4.95-16.51,9.74-24.77,14.61-1.9,1.12-3.74,2.32-5.87,3.65,2.16,3.71,4.13,7.11,6.37,10.97Zm720.65,163.21c1.57,4.16,2.96,7.84,4.4,11.66,12.97-5.05,25.59-9.95,38.52-14.98-1.64-4.24-3.13-8.1-4.7-12.16-12.86,5.21-25.31,10.26-38.21,15.49Zm-150.99,124.98c4.63,5.82,9.02,11.34,13.48,16.97,6.64-4.74,12.9-9.22,19.46-13.9-3.76-5.89-7.35-11.49-11.08-17.33-7.48,4.89-14.55,9.49-21.86,14.27Zm-94.79-113.72c-6.51,5.24-12.71,10.22-19.15,15.39,4.86,5.5,9.43,10.67,14.04,15.89,6.5-5.08,12.56-9.83,18.83-14.72-4.65-5.62-9.02-10.89-13.72-16.56Zm301.17,17.6c-13.11,5.19-25.9,10.24-38.97,15.41,1.53,4.03,2.87,7.57,4.31,11.37,13.32-5.09,26.1-9.97,39.13-14.94-1.52-4.02-2.91-7.7-4.47-11.84Zm-329.3,31.61c6.8-5.31,13.24-10.35,19.95-15.6-4.75-5.4-9.23-10.49-13.95-15.86-6.37,5.05-12.45,9.87-18.73,14.84,4.35,5.67,8.41,10.98,12.73,16.62Zm114.95-39.61c-6.37,5.15-12.5,10.11-18.8,15.21,4.87,5.68,9.36,10.92,13.91,16.23,6.31-4.62,12.24-8.95,18.52-13.54-4.56-5.99-8.99-11.79-13.63-17.89ZM66.32,190.67c1.26-11.64,2.52-23.32,3.81-35.19-2.54-.57-4.84-1.07-7.14-1.59-6.32-1.42-8.83.41-9.09,7.02-.22,5.86-.24,11.72-.17,17.59.05,3.68-.92,8.67,1.03,10.68,2.02,2.07,7.02,1.26,10.72,1.68.23.03.47-.1.84-.19Zm388.47,272.32c-8.97,2.3-17.49,4.49-26.42,6.78,2.43,8.52,4.73,16.59,7.16,25.09,2.14-1.56,3.75-2.94,5.55-3.98,2.87-1.66,3.91-3.63,2.56-6.97-1.11-2.74-1.69-5.74-2.21-8.67-.22-1.24.33-2.61.53-3.91.78,1.1,1.76,2.12,2.3,3.34.6,1.35.79,2.88,1.17,4.32.58,2.18,1.17,4.36,1.87,6.94,3.59-3.06,6.7-5.57,9.6-8.29.73-.69,1.26-2.2,1.05-3.15-.83-3.75-2-7.42-3.14-11.48Zm252.41-187.62c12.26,2.02,19.49-6.09,27.67-11.72-9.08-9.14-17.91-18.02-27.23-27.4-2.83,3.02-5.72,6.11-8.6,9.2-.67.71-1.32,1.44-2.24,2.44,1.5.4,2.7.67,3.87,1.03,4.73,1.48,9.61,2.64,14.13,4.61,3.75,1.63,4.59,5.47,3.77,9.44-1.04,5.03-3.51,8.6-8.34,10.52-.98.39-1.82,1.11-3.03,1.87Zm258.05,108.6c-1.5-3.86-2.84-7.31-4.3-11.05-12.98,5.05-25.67,10-38.63,15.05,1.5,3.98,2.8,7.4,4.19,11.09,13.07-5.09,25.7-10.01,38.74-15.09ZM262.71,249.94c10.81-6.38,21.36-12.61,32.37-19.11-4.19-2.91-7.79-5.56-11.56-7.93-.86-.54-2.58-.65-3.42-.15-8.22,4.89-16.33,9.95-24.59,15.04,2.46,4.16,4.74,8,7.2,12.16Zm177.72,259.18c2.49-1.05,5.01-1.51,6.73-2.93,8.17-6.73,16.15-13.69,24.09-20.68.64-.56.99-2.29.6-3.01-1.58-2.91-3.51-5.63-5.45-8.64-9.99,8.22-19.65,16.17-29.17,24.01,1.08,3.78,2.08,7.34,3.2,11.26Zm262.05,72.23c-3.36-8.3-6.32-16.09-9.77-23.65-.52-1.15-3.28-1.61-5.04-1.72-.71-.04-1.89,1.59-2.25,2.66-3.02,9.06-5.91,18.17-8.78,27.28-.26.84-.44,2.32-.02,2.63.89.65,2.4,1.28,3.32.96,7.39-2.53,14.71-5.29,22.54-8.15Zm-111.37,52.93c-.29-.18-.58-.36-.88-.55-8.64,6.6-17.28,13.2-26.16,19.99,4.28,5.62,8.31,10.91,12.46,16.36,2.3-1.78,4.41-3.14,6.18-4.84,1.74-1.67,4.1-3.5,4.51-5.59,1.65-8.39,2.65-16.9,3.88-25.37Zm45.32-249.39c-4.44-5.35-8.63-10.4-12.96-15.62-6.02,5.25-11.82,10.31-17.8,15.54,4.17,5.43,8.17,10.63,12.36,16.07,6.29-5.47,12.27-10.66,18.41-15.99Zm23.44-20.04c7.22-6.18,14.1-12.07,21.18-18.13-3.37-3.98-6.55-7.72-9.83-11.6-8.14,4.84-15.89,9.44-23.91,14.21,4.38,5.41,8.35,10.31,12.56,15.52Zm271.95,48.7c13.06-5.17,25.84-10.24,38.89-15.41-1.42-3.67-2.7-6.98-4.15-10.7-13.11,5.1-25.79,10.04-38.78,15.1,1.41,3.86,2.67,7.31,4.03,11.01Zm-250.5,275.56c13.99,6.11,27.66,12.1,41.38,17.98.63.27,1.97-.22,2.51-.8,1.66-1.79,3.1-3.8,4.88-6.04-14.87-7.09-29.29-13.97-43.83-20.91-1.76,3.47-3.26,6.44-4.94,9.77Zm-24.34-192.48c-3.48-4.41-6.9-8.73-10.49-13.27-6.7,5.4-13.06,10.39-19.22,15.62-1,.85-1.99,3.31-1.5,4.05,2.64,4,5.74,7.69,8.71,11.52,7.67-6.11,14.95-11.91,22.49-17.92Zm21.89-16.29c7.22-5.49,14.04-10.67,21.05-15.99-4-5.01-7.77-9.73-11.66-14.6-6.96,5.63-13.51,10.93-20.26,16.39,3.74,4.88,7.2,9.41,10.87,14.2Zm-21.9-113.03c-4.28-5.29-8.39-10.37-12.78-15.79-6.05,5.18-11.84,10.14-17.84,15.28,4.48,5.39,8.65,10.42,12.97,15.61,6.03-5.16,11.76-10.06,17.65-15.1Zm-198.67,219.76c8.41-1.94,16.45-3.8,24.63-5.7-1.65-6.33-3.18-12.16-4.76-18.19-8.3,2.01-16.12,3.9-24.35,5.9,1.52,6.11,2.95,11.84,4.48,17.99ZM222.14,253.84c9.52-5.85,18.7-11.49,28.19-17.33-2.4-4.12-4.63-7.94-7.05-12.08-9.58,5.74-18.92,11.35-28.54,17.11,2.52,4.19,4.87,8.09,7.4,12.3Zm402.1,321.78c-4.11-5.53-7.99-10.75-11.99-16.14-6.51,5.27-12.66,10.24-18.97,15.35,4.31,5.17,8.26,9.91,12.36,14.83,6.27-4.74,12.21-9.22,18.6-14.05ZM103.12,196.54c-11.13-.65-21.87-1.28-32.66-1.91-.21,4.16-.32,7.64-.57,11.11-.16,2.22.63,3.03,2.94,3.12,9.21.35,18.42.96,27.63,1.28.86.03,2.49-1.25,2.54-2.01.27-3.7.12-7.43.12-11.58Zm423.39,459.35c3.85,4.47,7.47,8.68,11.29,13.12,7.14-5.45,13.98-10.68,20.98-16.02-3.77-4.86-7.23-9.31-10.8-13.91-7.38,5.78-14.31,11.21-21.46,16.81Zm-187.82-447.66c.7-12.72,1.37-24.86,2.06-37.37-4.2-.3-7.95-.57-12.06-.86-.97,12.78-1.9,24.98-2.84,37.37,4.59.31,8.52.57,12.83.86Zm385.38,379.61c1.19,4.21,2.39,8.89,3.94,13.46.23.67,2.28,1.27,3.29,1.03,3.75-.89,7.43-2.13,11.12-3.27,7.78-2.41,7.54-2.44,8.3-10.76.48-5.2-.28-9.53-3.88-11.99-7.79,3.95-15.04,7.63-22.77,11.54Zm-199.92,91.57c-.68-1-1.41-1.73-1.72-2.62-.39-1.11-.44-2.35-.64-3.53,1.04.64,2.15,1.19,3.11,1.93.73.57,1.27,1.38,2,2.22,2.69-2.12,5.18-4.09,7.83-6.17-3.93-4.55-7.49-8.67-11.25-13.02-7.48,5.79-14.69,11.39-22,17.05,3.66,4.7,6.99,9,10.46,13.47,4.21-3.22,8.14-6.23,12.2-9.33Zm-60.94-71.19c8.28-2.03,16.18-3.96,24.43-5.98-1.38-6.09-2.68-11.85-4.04-17.85-8.28,1.93-16.2,3.77-24.53,5.71,1.41,6.16,2.72,11.9,4.14,18.13ZM180.92,183.66c2.43,4.11,4.56,7.72,6.82,11.56,10.61-6.25,20.88-12.31,31.54-18.59-2.81-2.32-5.14-4.58-7.81-6.3-1.6-1.03-4.35-2.27-5.57-1.59-8.36,4.64-16.45,9.75-24.98,14.93Zm595.32,333.46c-2.77-3.44-5.22-6.48-7.74-9.6-9.18,6.41-17.94,12.53-26.92,18.79,1.87,4.31,3.68,8.48,5.7,13.15,9.77-7.54,19.2-14.81,28.97-22.34Zm-288.03,88.06c-8.44,2.11-16.24,4.05-24.32,6.07,1.45,6.38,2.79,12.29,4.22,18.62,8.14-2.53,15.91-4.95,23.72-7.38-1.25-5.99-2.4-11.44-3.62-17.31Zm-20.26-82.44c-7.24,1.67-13.93,3.14-20.56,4.82-.83.21-2.04,1.66-1.93,2.35.9,5.48,2.07,10.91,3.23,16.7,8.28-2,16.09-3.89,24.23-5.86-1.7-6.17-3.28-11.89-4.97-18.01Zm509.84-105.77c-12.98,4.96-25.47,9.74-38.27,14.63,2.73,2.73,4.89,5.18,7.38,7.22.98.8,2.93,1.26,4.09.87,6.14-2.07,12.18-4.47,18.25-6.75,4.16-1.57,8.33-3.13,12.75-4.79-1.44-3.81-2.74-7.27-4.21-11.18ZM224.07,257.09c2.48,4.11,4.65,7.71,6.97,11.56,9.63-5.69,18.91-11.18,28.38-16.78-2.53-4.31-4.78-8.13-7.15-12.14-9.52,5.86-18.74,11.54-28.2,17.36Zm485.57,175.43c-6.27,5.09-12.22,9.91-18.36,14.89,4.04,5.08,7.8,9.8,11.7,14.71,6.45-4.81,12.58-9.38,18.86-14.06-4.21-5.36-8.1-10.31-12.2-15.53ZM103.24,192.76v-14.55h-31.9c-.29,4.08-.58,8.23-.89,12.58,11.04.66,21.69,1.3,32.79,1.97Zm614.47,382.83c-2.78-5.28-5.23-10.25-7.97-15.07-4.51-7.92-4.59-7.88,2.95-13.36,2.49-1.81,4.98-3.61,7.65-5.55-1.45-1.95-2.66-3.59-4.35-5.85-6.28,5.69-12.22,10.95-17.97,16.41-.97.92-1.93,2.99-1.54,4.04,2.93,7.91,6.21,15.7,9.47,23.77,3.79-1.41,7.35-2.75,11.76-4.39Zm-96.8-331.11c4.97,6.87,9.74,13.48,14.75,20.4,4.79-4.13,9.34-8.06,13.97-12.05-5.04-6.57-9.79-12.77-14.66-19.12-4.74,3.63-9.25,7.09-14.05,10.77Zm-359.56,10.63c-9.73,5.75-19,11.22-28.41,16.78,2.56,4,4.82,7.55,7.27,11.38,9.46-5.55,18.63-10.94,28.02-16.45-2.4-4.08-4.53-7.7-6.89-11.7Zm541.91,275.72c3.48-2.44,6.69-4.7,10.05-7.06-4.35-6.8-8.42-13.17-12.62-19.74-6.58,4.71-12.81,9.17-19.26,13.8,2.24,2.67,4.25,4.74,5.86,7.09,1.56,2.27,3.2,2.71,5.59,1.46,3.78-1.98,6.69-.86,8.84,2.69.31.52.8.93,1.54,1.76Zm148.59-87.42c6.34,5.48,12.05,10.45,17.8,15.39,1.64,1.41,2.87.95,3.8-.93,1.54-3.12,3.14-6.21,4.72-9.32,1.86-3.65,3.92-7.23,5.5-11,.54-1.29.06-3.09-.29-4.58-.07-.3-1.78-.58-2.53-.31-9.44,3.43-18.85,6.96-29.01,10.75ZM234.83,210.16c-9.64,5.65-19.04,11.16-28.75,16.85,2.38,3.99,4.51,7.55,6.73,11.27,9.8-5.88,19.05-11.43,28.52-17.12-2.29-3.88-4.3-7.28-6.5-11.01Zm300.74,355.64c-7.09-8.99-13.86-17.62-20.73-26.18-.55-.68-1.77-.83-2.67-1.23-.2.89-.67,1.83-.54,2.66.58,3.44,1.41,6.84,2.02,10.27,1.33,7.48,2.56,14.98,3.88,22.46.72,4.12,1.85,4.5,5.24,1.89,4.15-3.2,8.29-6.4,12.8-9.88Zm172.18-236.92c-7.3,6.26-14.26,12.22-21.38,18.32,3.47,4.1,6.64,7.85,9.92,11.73,7.14-6.17,13.98-12.07,20.9-18.05-3.32-4.22-6.31-8.01-9.45-12Zm-230.19,231.37c-1.35-5.72-2.6-11-3.91-16.52-8.26,2-16.09,3.89-24.28,5.88,1.29,5.66,2.49,10.93,3.76,16.5,8.31-1.99,16.16-3.87,24.43-5.85Zm-142.11-311.86c2.43-12.44,2.03-24.3,2.94-36.3-4.57-.29-8.57-.54-13.12-.83,0,4.06.32,7.56-.07,10.98-.62,5.39,1.07,11.34-3.82,16.01,4.55,3.28,8.86,6.38,14.07,10.14Zm550.54,149.67c10.63-4.14,20.99-8.17,31.57-12.29-1.58-4.14-2.96-7.78-4.43-11.63-10.77,4.31-21.01,8.41-31.47,12.59,1.5,3.93,2.86,7.49,4.33,11.33ZM204.26,223.71c9.65-5.66,19.05-11.16,28.68-16.8-2.25-3.82-4.24-7.18-6.3-10.67-9.75,5.6-19.11,10.98-28.76,16.53,2.21,3.8,4.2,7.2,6.38,10.94Zm422.8,195.26c-5.52,4.39-10.64,8.47-15.97,12.7,4.27,5.5,8.27,10.66,12.41,15.99,5.57-4.17,10.78-8.08,16.23-12.17-4.33-5.65-8.32-10.86-12.66-16.53Zm66.21-57.71c-3.38-4.02-6.54-7.76-9.81-11.65-7.2,6.19-14.05,12.08-21.13,18.17,3.21,3.83,6.13,7.31,9.17,10.93,7.39-5.92,14.45-11.59,21.77-17.46Zm-93.63,55.65c5.36-4.69,10.38-9.07,15.5-13.56-4.27-5.51-8.26-10.66-12.4-16-5.35,4.87-10.22,9.29-15.3,13.91,4.11,5.27,8,10.26,12.2,15.65Zm-188.04,56.67c2.39,9.35,4.66,18.19,6.98,27.26,5.01-1.53,9.48-2.9,14.27-4.37-2.53-8.82-4.97-17.33-7.45-26.02-4.74,1.07-9.07,2.05-13.8,3.12Zm480-60.91c10.62-4.14,20.79-8.1,31.33-12.21-1.41-3.86-2.7-7.4-4.08-11.18-10.77,4.19-21.04,8.19-31.51,12.26,1.48,3.87,2.76,7.21,4.26,11.13Zm42.32,17.11c-1.52-3.97-2.88-7.52-4.33-11.34-10.52,4.18-20.65,8.2-31.03,12.32,1.05,3.16,1.74,5.95,2.96,8.5.41.86,2.41,1.79,3.25,1.49,9.6-3.46,19.12-7.15,29.15-10.97Zm-190.38,228.8c.81-9.87,1.6-19.44,2.4-29.17-4.17-.45-8.11-.87-12.43-1.33-1.54,9.64-3.07,19.16-4.66,29.09,5.08.49,9.85.95,14.68,1.42Zm153.67-231.3c10.62-4.21,20.79-8.24,31.14-12.34-1.41-3.8-2.7-7.27-4.09-11.01-10.51,4.1-20.8,8.12-31.3,12.22,1.45,3.8,2.77,7.26,4.25,11.14ZM266.89,199.75c.81-11.75,1.57-22.81,2.35-34.06-4.62-.34-8.65-.64-12.98-.97-.56,8.58-1.13,16.65-1.57,24.72-.05.86.35,2.12.99,2.58,3.47,2.55,7.09,4.92,11.21,7.73Zm703.23,186.5c1.4,3.57,2.7,6.87,4.14,10.52,10.68-3.94,21.02-7.75,31.8-11.73-2.76-3.33-5.11-6.37-7.72-9.17-.59-.64-2.27-.94-3.11-.59-8.25,3.49-16.42,7.14-25.11,10.97Zm-223.51,276.54c2.81,13.95-2.71,24.98-10.99,35.51,3.89-1.64,6.87-2.86,9.82-4.17.64-.29,1.16-.88,1.67-1.39,2.96-2.97,5.6-6.37,8.93-8.83,5.3-3.9,6.41-9.48,7.26-15.27.12-.79-.91-2.37-1.66-2.57-4.54-1.17-9.15-2.04-15.03-3.28Zm-13.97-110.97c3.63-3.09,6.89-5.78,10.02-8.6.61-.55,1.25-1.85,1.01-2.45-2.59-6.28-5.35-12.49-8.23-19.09-5.52,4.22-10.63,8.13-16.03,12.25,4.42,5.98,8.68,11.74,13.23,17.89Zm166.81-216.24c-10.65,6.25-20.97,12.3-31.43,18.44,1.48,2.68,2.67,4.81,3.91,7.06,10.8-4.21,21.3-8.3,32-12.47-1.6-4.66-3.03-8.83-4.48-13.04Zm109.45,53.56c-.42-.23-.85-.46-1.27-.69-10.6,3.9-21.21,7.81-32.09,11.81,1.55,4.03,3,7.78,4.55,11.8,5.54-2.16,10.5-4.61,15.75-6.02,6.33-1.7,10.05-5.4,11.64-11.56.46-1.78.95-3.56,1.42-5.34Zm-285.48,194.09c7.48-2.82,15.06-4.65,20.17-11.26-3.86-4.95-7.64-9.8-11.56-14.83-4.33,3.48-8.34,6.62-12.2,9.92-.63.54-1.06,1.95-.82,2.74,1.3,4.39,2.83,8.71,4.41,13.43Zm36.99,78.56c.53-9.71,1.05-19.08,1.58-28.64-4.12-1.03-7.9-1.97-12.34-3.08-.78,10.01-1.51,19.47-2.25,29.01,4.61.96,8.6,1.79,13.01,2.71Zm-76.47-317.51c6.82-5.82,13.3-11.27,19.65-16.87.65-.57,1.11-2.33.72-2.93-1.74-2.66-3.82-5.09-5.67-7.47-8.17,5.5-15.98,10.76-24.03,16.17,3.14,3.74,6.09,7.24,9.32,11.1Zm29.17,311.39c4.34.44,8.35.85,12.67,1.29,1.55-9.76,3.06-19.25,4.6-28.9h-12.82c-1.48,9.16-2.93,18.19-4.45,27.61ZM278.23,219.36c-3.83-2.84-6.99-5.26-10.26-7.53-.69-.48-2.04-.82-2.65-.47-6.24,3.58-12.39,7.32-18.78,11.15,2.48,4.24,4.71,8.03,7.05,12.03,8.33-5.13,16.16-9.95,24.65-15.18Zm417.84,430.77c4.77,1.68,9.21,3.24,14.04,4.94,1.42-8.98,2.78-17.61,4.23-26.81-5.83.76-10.85,1.41-16.12,2.1-.72,6.6-1.42,13-2.15,19.77Zm-39.54-106.95c2.19-4.57,4.17-8.55,5.99-12.6.28-.63.13-1.78-.29-2.35-4.13-5.56-8.35-11.05-12.75-16.83-3.68,3.01-7.11,5.82-10.73,8.78,5.93,7.66,11.68,15.1,17.79,23Zm-241.03-42.06c-2.3-8.96-4.57-17.81-6.88-26.83-3.28.84-6.19,1.49-9.02,2.34-2.17.66-3.24,1.95-2.46,4.51,1.26,4.16,2.09,8.45,3.31,12.62,3.17,10.82,3.22,10.8,14.35,7.87.11-.03.2-.14.7-.51Zm104.83,81.91c-.35.15-.7.3-1.05.44,2.26,12.8,4.52,25.59,6.97,39.46,4.85-4.31,9.07-7.91,13.04-11.76.5-.48.1-2.53-.52-3.4-3.91-5.48-7.99-10.82-12.02-16.21-2.13-2.85-4.28-5.69-6.42-8.54Zm144.65-114.54c-5.33,4.32-10.32,8.36-15.46,12.53,3.7,4.7,7.06,8.98,10.6,13.48,5.42-4.1,10.52-7.97,15.71-11.9-3.72-4.83-7.12-9.26-10.85-14.11Zm-144.39,37.04c3.79,4.88,7.26,9.34,10.86,13.98,5.02-4.05,9.72-7.85,14.51-11.72-3.61-4.71-6.99-9.11-10.55-13.75-5.03,3.9-9.72,7.54-14.82,11.5Zm56.66,81.7c4.04,5.23,7.79,10.08,11.65,15.07,4.74-3.58,9.07-6.84,13.68-10.32-4.19-5.04-8.12-9.77-12.22-14.7-4.43,3.36-8.57,6.5-13.11,9.95Zm197.89,79.08c0-9.48.05-18.29-.07-27.11-.01-1-.72-2.58-1.49-2.86-2.7-1-5.57-1.56-8.56-2.33-.46,7.79-.82,15.11-1.36,22.41-.45,6.03-.55,6.03,5.3,7.96,1.64.54,3.29,1.03,6.18,1.93Zm-226.19-160.86c4.83-3.88,9.29-7.46,13.98-11.24-3.65-4.85-7.12-9.46-10.72-14.25-4.83,4.1-9.26,7.87-13.79,11.71,3.6,4.7,6.92,9.05,10.53,13.77Zm76.76,111.8c1.73.4,3.04.72,4.35,1,6.7,1.41,6.77,1.43,9.58-4.82,2.78-6.17,5.4-12.42,8.19-18.85-3.51-1.66-6.28-2.97-9.37-4.43-4.28,9.09-8.44,17.93-12.76,27.11Zm-97.19-95.3c-3.73-4.82-7.2-9.3-11.31-14.61-3.11,3.51-7.51,6.25-8.12,9.68-1.01,5.6.45,11.64.87,17.49.53.23,1.05.45,1.58.68,5.58-4.35,11.17-8.7,16.99-13.24Zm465.97-150.5c-3.97-9.04-4.87-9.45-13.33-6.31-2.45.91-4.89,1.84-7.32,2.79-3.07,1.2-6.14,2.42-9.39,3.7,1.55,3.97,2.89,7.37,4.37,11.15,8.93-3.94,17.3-7.63,25.67-11.33Zm-421.47,73.81c-8.58,7.58-16.92,14.95-25.34,22.39,1.93,2.5,3.51,4.56,5.27,6.84,8.76-7.33,17.33-14.5,26.09-21.83-2.04-2.51-3.89-4.79-6.01-7.4Zm390.08-77.14c7.99-3.08,15.44-5.95,23.2-8.94-2.87-3.27-5.34-6.21-7.97-8.99-.56-.59-1.86-1.13-2.52-.89-5.69,2.07-11.31,4.33-17.34,6.69,1.61,4.22,3.05,8,4.63,12.13Zm-364.03,54.23c-7.09,6.23-13.88,12.21-20.85,18.33,2.12,2.75,3.97,5.16,5.87,7.62,7.35-5.88,14.35-11.46,21.63-17.28-2.22-2.89-4.25-5.53-6.66-8.66ZM239.24,163.4c-.26,5.35-.51,10.19-.73,15.02-.03.6-.12,1.53.21,1.77,3.82,2.8,7.72,5.5,12.1,8.58.6-8.71,1.13-16.38,1.68-24.36-4.42-.34-8.59-.66-13.26-1.02Zm99.47,87.74c.65-.3.98-.35,1.05-.51,4.51-10.77,9.24-21.46,13.37-32.38,1.78-4.71.92-5.31-4.03-5.59-1.12-.06-2.24-.13-3.34-.34-2.63-.49-3.75.24-3.84,3.22-.23,7.83-.72,15.65-1.36,23.45-.32,3.96-1.18,7.87-1.85,12.14Zm263.19,168.78c2.43,3.06,4.63,5.84,6.91,8.72,5.47-4.35,10.6-8.44,15.94-12.69-2.47-3.22-4.79-6.24-7.29-9.51-5.25,4.55-10.21,8.85-15.55,13.48Zm73.2,224.62c5.78,1.44,11.61,2.9,17.98,4.49.66-6.16,1.28-11.97,1.89-17.67-9.11.47-16.89,2.51-19.87,13.18ZM238.1,208.27c2.28,3.86,4.29,7.26,6.48,10.96,6.22-3.73,12.13-7.27,18.43-11.05-3.55-2.53-6.53-4.77-9.65-6.78-.76-.49-2.25-.65-3.01-.24-4.03,2.17-7.94,4.57-12.25,7.11Zm496.93,346.52c3.99,5.13,7.83,10.06,11.78,15.13,2.19-1.77,4-3.09,5.61-4.62.59-.56,1.21-1.81.97-2.39-2.36-5.68-4.91-11.28-7.58-17.32-3.79,3.23-7.16,6.11-10.78,9.19Zm-42.99,123.58c-5.87-8.76-11.25-16.79-16.76-25.01-3.66,2.84-7.53,5.84-11.83,9.18,9.84,5.45,18.94,10.49,28.59,15.83Zm-38.09-43.86c-5.66-2.91-7.69-9.84-14.82-10.05-.12.23-.39.64-.58,1.08-3.1,7.23.45,13.87,2,20.64.41,1.79,1.88,1.56,3.08.17,3.23-3.77,6.51-7.48,10.33-11.85Zm68.77-89.76c-3.77,2.64-7.21,4.89-10.42,7.44-.78.62-1.4,2.53-1.01,3.32,1.5,3.07,3.44,5.92,5.4,9.15,4.5-3.63,8.64-6.98,12.98-10.48-2.3-3.12-4.49-6.09-6.95-9.43Zm68.7-314.54c-1.2-.1-2.61.03-3.87-.36-2.89-.88-4.32.38-5.95,2.7-2.54,3.61-5.63,6.85-8.58,10.15-1.31,1.47-2.87,2.71-4.42,4.15,2.06,2.55,3.99,4.92,6.09,7.52,5.73-8.28,11.15-16.11,16.72-24.17Zm195.72,201.01c4.62-7.82,8.91-15.1,13.76-23.32-7.22,2.84-13.3,5.23-19.59,7.7,1.99,5.33,3.8,10.19,5.83,15.62Zm-221.34-159.25c.4.25.8.5,1.2.76,2.84-1.86,6.49-3.13,8.35-5.7,4.64-6.41,8.66-13.31,12.53-20.24,1.45-2.59,1.8-5.79,2.66-8.71-1.12.2-1.48.69-1.84,1.17-7.21,9.78-12.45,21.05-22.03,29.07-.77.64-.6,2.41-.87,3.65Zm-113.28,383.22c4.28-4.74,8.31-9.2,12.55-13.89-2.76-1.52-4.87-2.84-7.14-3.84-.77-.34-2.3-.19-2.81.36-3.42,3.71-6.65,7.59-10.15,11.65,2.62,1.98,4.88,3.7,7.55,5.72Zm121.9-22.62c0-2.62.18-4.75-.09-6.81-.1-.78-1.21-1.96-1.94-2.03-6.92-.6-13.86-.99-21-1.46-.23,1.29-.45,2.58-.72,4.1,8.04,2.1,15.72,4.1,23.74,6.19ZM234.75,177.5c.26-5.25.48-9.64.72-14.31-5.43-.33-10.36-.63-15.38-.94-.4,1.26-.77,2.4-1.19,3.72,5.07,3.69,10.05,7.32,15.85,11.54Zm226.3,296.8c5.37-4.51,10.22-8.53,14.99-12.66.5-.43.81-1.64.56-2.21-.23-.53-1.4-1.07-2.02-.94-5.53,1.16-11.03,2.46-16.81,3.79,1.11,4.08,2.08,7.63,3.28,12.02ZM248.45,197.84c-4.11-2.97-7.7-5.57-11.47-8.29-2.39,1.63-4.68,3.2-7.1,4.85,2.23,3.73,4.24,7.09,6.34,10.61,4.16-2.44,7.89-4.63,12.23-7.17Zm406.76,458.69c4.15,4.31,4.28,4.32,8.55.97,1.47-1.15,2.96-2.28,4.44-3.42q7.35-5.6-.74-10.89c-4.06,4.42-8.16,8.88-12.25,13.34Zm-5.15-87.98c-.34-.11-.69-.22-1.03-.33-2.94,6.07-5.88,12.14-8.97,18.51,2.97,1.4,5.6,2.64,8.38,3.96,4.06-7.43,1.83-14.84,1.63-22.13Zm123.7,52.25c-.77-4.43-1.55-8.3-2.07-12.2-.4-3-2.61-2.26-4.24-2.1-1.33.13-3.63.98-3.69,1.67-.35,3.99-.17,8.04-.17,12.09,3.45.19,6.51.35,10.18.55Zm-55.33-400.23c10.12-6.42,13.25-10.24,12.59-15.22-12.82.17-13.29.65-12.75,13.02.03.7.1,1.39.17,2.2Zm41.96,384.83c-2.46-.28-4.85-.55-7.48-.84-.41,5.06-.78,9.59-1.18,14.43,2.98.3,5.61.56,8.66.87v-14.46ZM164.34,211.87c-2.48-4.14-4.71-7.55-6.61-11.14-1.28-2.42-2.91-2.71-5.38-1.68-.19,4.24-.38,8.51-.57,12.82h12.55Zm624.65,446.99c1.08-9.66-1.41-12.3-10.26-11.29v9.36c3.32.62,6.67,1.25,10.26,1.93Zm-405.49-370.87c.29-.33.57-.65.86-.98-14.79-10.49-28.72-22.23-45.37-30.01,14.84,10.33,29.68,20.66,44.51,30.99Zm473.76,172.24c4-5.5,7.58-10.43,11.41-15.69q-4.95-.32-10.76,4.52c-4.31,3.6-4.47,4.73-.65,11.17Zm-68.17,201.67c-3.87-.67-7.12-1.23-10.36-1.79-1.39,8.01.85,10.44,9.29,10.08.34-2.6.68-5.25,1.07-8.28ZM314.92,240.05c.28-.35.57-.7.85-1.04-9.13-6.74-18.25-13.49-27.38-20.23-.34.25-.67.5-1.01.75.55.82.93,1.89,1.68,2.43,7.5,5.36,15.07,10.63,22.62,15.91,1.06.75,2.16,1.45,3.23,2.18Zm363.34,409.2c2.5,4.74,4.57,8.66,7.08,13.41,1.57-4.08,2.75-7.15,4.1-10.67-3.65-.89-7.02-1.72-11.18-2.74Zm-155.74-208.29c-2.13-2.83-4.04-5.37-5.68-7.54-2.83,2.62-5.43,5.03-8.14,7.54h13.82ZM212.63,158.05c-3.28.59-5.09,1.85-4.53,4.13.38,1.53,2.35,3.58,3.73,3.67,1.27.09,3.7-2.05,3.78-3.34.1-1.41-1.89-2.97-2.98-4.46Zm106.72,83.4c-.29.44-.58.87-.87,1.31,5.66,3.92,11.32,7.84,16.98,11.77l.7-1c-5.6-4.02-11.2-8.05-16.81-12.07Zm472.96,289.56c1.24,1.63,2.46,3.22,3.8,4.97,1.46-1.14,2.56-2,3.62-2.82-2.88-4.79-2.94-4.81-7.42-2.15Zm130.09-209.75c.03.31.05.62.08.92,5.98-1.12,11.97-2.24,17.95-3.36-.05-.29-.11-.59-.16-.88-5.96,1.11-11.91,2.21-17.87,3.32Zm-278.38,291.89c-1.54,3.18-2.66,5.5-3.96,8.17,1.74.58,3.06,1.02,4.58,1.53-.2-3.18-.38-5.88-.62-9.7Zm300.72-295.96c.04.27.09.54.13.81,5.63-.96,11.25-1.91,16.88-2.87-.03-.17-.06-.35-.08-.52-5.64.86-11.28,1.72-16.93,2.58Zm-63.67,22.37c-.18.15-.34.28-.5.42.19.06.38.15.57.17.09,0,.19-.13.28-.2-.12-.13-.23-.25-.36-.39Zm-473.29-34.95c-.07-.07-.13-.19-.2-.2-.07,0-.16.09-.24.15.07.07.13.19.2.2.07,0,.16-.09.24-.15Zm9.69.01l-.21-.1-.02.15.23-.05Zm-313.52,236.73c-.08-.09-.16-.17-.24-.26-.08.08-.17.16-.25.24.12.09.24.17.36.26.04-.08.09-.16.13-.24Zm632.2,158c-.05-.08-.11-.16-.16-.24-.07.06-.19.12-.2.19,0,.07.09.16.15.23.07-.06.15-.12.22-.19Z"/>
    <path class="cls-5" d="m66.75,0c4.66,16.93,9.1,33.92,14.05,50.75,3.54,12.04,7.3,24.06,11.82,35.76,5.56,14.41,16.3,24.16,30.32,30.41,1.21.54,2.48,1.23,3.38,2.18,12.62,13.24,27.79,21.22,46.23,22.5,3.2.22,6.39.44,9.59.67,1.1-.02,2.19-.03,3.29-.05,17.31,1.06,34.61,2.12,51.84,3.18,3.34-20.09,6.65-39.99,9.95-59.9l1.62.03c.11,1.09.46,2.22.3,3.27-1.21,8.25-2.53,16.48-3.8,24.68,6.66.68,13.06,1.33,19.47,1.99.86.09,1.82.07,2.54.46.63.34.99,1.18,1.47,1.8-.67.43-1.36,1.26-2,1.22-3.11-.2-6.2-.73-9.3-.96-3.47-.26-6.96-.47-10.44-.41-.91.02-2.48.99-2.61,1.72-1.4,7.84-2.63,15.72-3.73,23.61-.12.88.83,1.9,1.28,2.86.6-.92,1.72-1.84,1.7-2.75-.11-5.25,2.86-7.42,7.24-9.81,8.2-4.46,16.34-3.03,24.29-.92,4.96,1.32,9.03,5.09,9.7,11.04.29,2.59,4.74,5.61,8.64,5.89,16.56,1.19,33.12,2.35,49.68,3.5,16.06,1.11,32.13,2.19,48.19,3.28.85.11,1.69.22,2.54.33.33,0,.66.01.99.02,2.61.06,5.22.13,7.83.19,22.26,1.32,44.52,2.63,66.78,3.96,26.61,1.6,53.22,3.26,79.83,4.8,8.33.48,16.68.68,25.03,1.01,5.05.23,10.1.45,15.15.68,25.27,1.77,50.52,3.83,75.81,5.24,43.26,2.42,85.85,8.85,127.74,19.92,14.71,3.89,29.45,7.66,44.18,11.45.95.24,1.96.26,2.94.38,0,0,.06-.12.06-.12.44.21.89.43,1.33.64,6.08,1.52,12.16,3.05,18.24,4.57.27.22.5.58.8.66,16.79,4.24,33.59,8.47,50.39,12.65.47.12,1.08-.3,1.63-.48,14.06,4.18,28.05,8.61,42.19,12.47,28.74,7.86,57.48,15.7,86.38,22.92,8.75,2.19,17.98,2.7,27.03,3.3,6.18.41,12.44-.39,18.66-.52,1.3-.03,2.75.27,3.9.87,10.95,5.67,21.57,12.1,32.86,16.95,7.41,3.18,15.79,4.12,23.73,6.06v6.74c-5.33-1.28-10.72-2.37-15.99-3.87-9.79-2.78-19.73-3.33-29.55-1.05-6.19,1.43-10.78,5.92-14.2,11.24-1.46,2.28-2.09,5.07-3.39,7.47-3.56,6.61-7.71,12.44-14.69,16.35-8.55,4.79-14.91,12-19.9,20.72-20.4,35.67-41.19,71.12-61.79,106.68-3.24,5.6-6.24,11.34-9.35,17.02-.93,1.55-1.87,3.11-2.8,4.66-13.27,23.38-26.54,46.76-39.79,70.15-1.4,2.47-2.64,5.04-3.96,7.56,0,0,.1.04.1.04-.45.48-.89.95-1.34,1.43-1.54,3.03-3.07,6.06-4.61,9.09-2.94,4.73-5.95,9.42-8.8,14.21-3.7,6.2-7.26,12.48-10.89,18.73-2.7,4.97-5.4,9.94-8.1,14.92-2.33,4.84-4.7,9.67-6.95,14.55-.25.54.12,1.36.2,2.04-.71.78-1.43,1.55-2.14,2.33-2.84,7.45-5.37,15.03-8.57,22.31-6.15,13.99-8.44,28.92-10.85,43.77-3.89,23.99-7.16,48.08-10.71,72.28h-6.21c.83-5.6,1.66-11.19,2.48-16.79,2.88-19.62,5.87-39.22,8.6-58.86,3.95-28.49,14.9-54.65,26.54-80.6.64-1.43.95-3.02,1.41-4.53,1.18-2.34,2.33-4.69,3.56-7.01.38-.72,1.02-1.31,1.43-2.03.98-1.7,1.91-3.43,2.85-5.15.88-.97,1.96-1.82,2.6-2.93,8.77-15.09,17.53-30.19,26.2-45.34,6.24-10.91,12.35-21.9,18.52-32.86.69-1.01,1.38-2.02,2.07-3.03,10.56-18.95,21.12-37.89,31.68-56.84,1.97-3.46,3.95-6.92,5.92-10.38.65-.9,1.37-1.76,1.93-2.72,14.49-24.87,29.14-49.66,43.37-74.68,7.4-13.01,16.47-25.26,19.4-40.5.67-3.49,1.5-6.75.27-10.18.48-3.2,1.26-6.28,2.99-9.11.66-1.09.66-2.58.96-3.88,1.82-2.81,3.82-5.53,5.43-8.46,2.83-5.16,1.1-13.69-3.96-16.51-5.27-2.94-10.93-5.46-16.72-7.13-15.55-4.5-31.25-8.46-46.91-12.6-14.52-3.84-29.05-7.63-43.57-11.44-11.52-3.24-23.03-6.47-34.55-9.71-.74-.09-1.48-.19-2.23-.28-.25-.16-.49-.33-.74-.49-41.97-10.8-83.94-21.61-125.91-32.41-1.78-.44-3.55-.88-5.33-1.32-11.72-2.58-23.44-5.16-35.16-7.74-1.52-.17-3.05-.34-4.57-.52,0,0,0,0,0,0-.3-.2-.61-.41-.91-.61-.99-.09-2-.11-2.97-.29-21.27-4.02-42.78-5.96-64.35-7.44-1.26-.14-2.52-.29-3.78-.43-.49.21-.99.42-1.48.62-1.29-.26-2.58-.51-3.87-.77-12.96-.81-25.91-1.62-38.87-2.42-1.09-.13-2.18-.25-3.27-.38-.34,0-.68-.02-1.02-.03-1.88-.03-3.77-.06-5.65-.09-5.88-.48-11.75-.96-17.63-1.45-1.34-.06-2.68-.11-4.03-.17-1.67-.21-3.35-.43-5.02-.64-1.59-.02-3.18-.04-4.77-.06-7.13-.28-14.26-.53-21.39-.85-1.31-.06-2.6-.42-3.9-.64-1.67.14-3.34.27-5.01.41-1.21-.22-2.41-.56-3.63-.64-16.57-1.04-33.14-2.06-49.71-3.04-37.25-2.2-74.51-4.29-111.76-6.59-23.8-1.47-47.57-3.3-71.36-4.88-9.7-.65-19.41-1.08-29.12-1.6-1.09-.08-2.17-.16-3.26-.24-1.45-.2-2.91-.41-4.36-.61-1.26-.06-2.52-.13-3.78-.19-.97-.18-1.94-.46-2.92-.52-29.02-1.81-58.03-3.71-87.06-5.35-12.22-.69-24.36-1.48-36.28-4.66-13.54-3.61-26.22-10.02-40.18-12.2-.24-.04-.46-.18-.7-.26-11.3-3.53-22.59-7.07-33.89-10.6-20.57-6.25-41.14-12.51-61.72-18.75-1.18-.36-2.41-.55-3.61-.81-3.5-1.25-7-2.49-10.5-3.74,0-2.25,0-4.5,0-6.74.18.16.33.42.54.48,34.08,10.44,68.15,20.89,102.25,31.27,1.56.47,3.3.34,5.8.56-2.38-3.54-4.22-6.3-6.1-9.04-7.18-10.46-15.09-20.5-18.95-32.87-2.63-8.43-5.4-16.83-7.84-25.32C70.38,37.18,65.23,18.58,60,0c2.25,0,4.5,0,6.75,0Zm179.53,146.41c11.15-1.13,22.49,4.03,33.82-1.51,2.59-1.27,2.88-2.57,1.71-3.93-2.14-2.47-4.64-5.63-7.5-6.29-6.97-1.59-13.96-3.21-21.36.41-5.09,2.49-7.21,5.36-6.68,11.31Zm823.45,144.77c-2.47,1.75-4.89,2.59-5.77,4.24-2.21,4.14-4.21,8.54-5.27,13.08-.39,1.67,1.72,4.47,3.41,5.89,1.1.92,3.71.8,5.29.2,4.53-1.71,7.07-5.56,9.56-9.55,1.7-2.73,1.84-5.42.14-7.59-1.86-2.37-4.63-4.01-7.37-6.27Zm6.15-14.19c1.4,1.77,2.15,3.06,3.22,4.01,2.52,2.26,6.23,1.99,7.98.34,2.41-2.28,4.16-5.9,4.8-9.22.83-4.25-5.16-7.83-8.43-5.05-2.97,2.53-4.89,6.3-7.57,9.93Zm22.71-4.57c-.81,2.7-1.55,5.12-2.4,7.95,4.54-.7,8.72-1.34,13.91-2.14-4.37-2.21-7.85-3.97-11.51-5.82Zm-35.61-5.61c2.63,2.43,4.95,4.57,7.37,6.81,1.7-2.35,3.18-4.41,4.92-6.81h-12.29Zm8.01,17.11c-.16.27-.65,1.08-.69,1.14,4.28,2.61,8.36,5.11,12.57,7.68.36-1.03.89-2.52,1.07-3.03-4.57-2.04-8.63-3.86-12.95-5.79ZM123.37,124.74c-1.74-1.11-2.63-2.09-3.57-2.14-.75-.04-1.57,1.04-2.35,1.62.83.79,1.55,1.94,2.54,2.25.64.2,1.67-.8,3.38-1.74Z"/>
    <path class="cls-2" d="m898.44,606.04c2.7-4.97,5.4-9.94,8.1-14.92.6,2.18,1.78,4.38,1.7,6.54-.19,5.68-4.11,8.8-9.81,8.38Z"/>
    <path class="cls-3" d="m913.47,229.78c.74.09,1.48.19,2.23.28-.74-.09-1.48-.19-2.23-.28Z"/>
    <path class="cls-3" d="m637.16,653.66c-.08-.51-.16-1.01-.24-1.52.35.23.69.45,1.04.68-.27.28-.53.56-.8.85Z"/>
    <path class="cls-3" d="m874.44,338.06c.12.13.24.26.36.39-.1.07-.2.21-.28.2-.2-.02-.38-.11-.57-.17.16-.13.32-.26.5-.42Z"/>
    <path class="cls-1" d="m639.45,562.4c.28-.03.56-.06.83-.08-.14.17-.28.33-.41.5-.14-.13-.28-.27-.42-.41Z"/>
    <path class="cls-1" d="m122.71,295.61c.04.29.08.57.12.86-.26-.1-.52-.21-.78-.31.22-.18.44-.37.66-.55Z"/>
    <path class="cls-4" d="m401.16,303.1c-.08.05-.17.16-.24.15-.07,0-.14-.13-.2-.2.08-.05.17-.15.24-.15.07,0,.14.13.2.2Z"/>
    <polygon class="cls-3" points="410.84 303.12 410.61 303.16 410.63 303.01 410.84 303.12"/>
    <path class="cls-1" d="m85.81,269.43c.03.28.06.56.09.84-.17-.14-.34-.27-.51-.41.14-.15.28-.29.43-.43Z"/>
    <path class="cls-4" d="m402.6,304.34c-.16-.22-.32-.43-.48-.65.29.09.58.17.87.26-.13.13-.26.26-.4.39Z"/>
    <path class="cls-3" d="m97.33,539.85c-.04.08-.09.16-.13.24-.12-.09-.24-.17-.36-.26.08-.08.17-.16.25-.24.08.09.16.17.24.26Z"/>
    <path class="cls-1" d="m729.53,697.85c-.07.06-.15.12-.22.19-.05-.08-.16-.16-.15-.23,0-.07.13-.13.2-.19.05.08.11.16.16.24Z"/>
    <path class="cls-1" d="m893.24,278.71c-.05.09-.08.2-.15.27-.03.03-.13-.01-.21-.02.13-.06.26-.13.4-.19,0,0-.04-.05-.04-.05Z"/>
    <path class="cls-2" d="m394,156.32c-.85-.11-1.69-.22-2.54-.33.85.11,1.69.22,2.54.33Z"/>
    <path class="cls-2" d="m947.4,507.23c-6.2-2.29-12.44-4.5-18.58-6.93-.99-.39-1.62-1.72-2.41-2.61,1.11-.08,2.34-.52,3.3-.19,5.43,1.86,10.78,3.94,16.18,5.88,1.14.41,2.38.56,3.58.82-.69,1.01-1.38,2.02-2.07,3.03Z"/>
    <path class="cls-4" d="m842.98,203.86c5.65,1.74,11.29,3.48,16.94,5.21-6.08-1.53-12.16-3.05-18.24-4.58l1.31-.64Z"/>
    <path class="cls-2" d="m673.53,178.98c-1.26-.14-2.52-.29-3.78-.43,1.26.14,2.52.29,3.78.43Z"/>
    <path class="cls-2" d="m625.53,175.98c-1.09-.13-2.18-.26-3.27-.38,1.09.13,2.18.26,3.27.38Z"/>
    <path class="cls-3" d="m842.98,203.86l-1.31.64c-.44-.21-.89-.43-1.33-.64.88,0,1.76,0,2.64,0Z"/>
    <path class="cls-3" d="m932.19,547.68c-.45.48-.89.95-1.34,1.43.45-.48.89-.95,1.34-1.43Z"/>
    <path class="cls-2" d="m741.75,187.31c-.3-.2-.61-.41-.91-.61.3.2.61.41.91.61Z"/>
  </g>
  <g id="Camada_2" data-name="Camada 2">
    <circle class="trash-can-full" cx="621.05" cy="288.33" r="7.44"/>
    <circle class="trash-can" cx="254.52" cy="275.7" r="7.44"/>
    <circle class="trash-can" cx="910.65" cy="326.88" r="7.44"/>
    <circle class="trash-can" cx="151.79" cy="488.31" r="7.44"/>
    <circle class="trash-can" cx="457.22" cy="523.77" r="7.44"/>
    <circle class="trash-can" cx="568.18" cy="594.18" r="7.44"/>
    <circle class="trash-can" cx="677.74" cy="458.59" r="7.44"/>
    <circle class="trash-can" cx="827.69" cy="517.76" r="7.44"/>
    <circle class="trash-can" cx="551.04" cy="413.62" r="7.44"/>
    <circle class="trash-can" cx="718.95" cy="624.47" r="7.44"/>
    <circle class="trash-can" cx="778.16" cy="328.88" r="7.44"/>
  </g>
</svg>